<svg xmlns="http://www.w3.org/2000/svg" viewBox="0 0 239 78">
  <path fill="#0097dd" d="M42.69 17.98c-1.77-2.4-3.78-4.19-6.04-5.38-2.26-1.18-4.8-1.77-7.64-1.77-4.46 0-8.28 1.63-11.47 4.88-3.19 3.26-4.78 7.11-4.78 11.57 0 4.75 1.58 8.76 4.74 12.03 3.16 3.27 7 4.91 11.51 4.91 2.76 0 5.27-.57 7.52-1.7s4.21-2.82 5.89-5.07h4.7c-1.82 3.35-4.29 5.94-7.41 7.77-3.11 1.83-6.59 2.74-10.42 2.74-5.9 0-10.82-1.98-14.78-5.94-3.96-3.96-5.94-8.89-5.94-14.79 0-2.76.53-5.38 1.59-7.85 1.06-2.47 2.63-4.7 4.71-6.69 1.9-1.86 4.04-3.28 6.42-4.25 2.39-.97 4.98-1.46 7.78-1.46 4 0 7.59.95 10.78 2.84 3.19 1.9 5.72 4.61 7.6 8.15h-4.76zm36.22 24.51c-1.2 1.69-2.83 3.02-4.91 4-2.07.98-4.32 1.47-6.73 1.47-4.44 0-8.15-1.49-11.12-4.48-2.98-2.99-4.46-6.67-4.46-11.05 0-4.44 1.52-8.16 4.56-11.16 3.04-3 6.83-4.51 11.36-4.51 2.32 0 4.45.46 6.4 1.39 1.94.93 3.58 2.27 4.91 4.02V17.4h3.81v29.79h-3.81v-4.7zm0-10.38c0-3.14-1.15-5.89-3.45-8.25-2.3-2.36-4.96-3.54-7.96-3.54-3.26 0-6.04 1.18-8.33 3.53-2.29 2.35-3.44 5.27-3.44 8.75 0 3.3 1.14 6.1 3.41 8.39 2.28 2.29 5.02 3.44 8.25 3.44 3.1 0 5.79-1.2 8.08-3.61 2.3-2.42 3.44-5.32 3.44-8.71zm8.72 5.73h4.01v.11c0 1.85.54 3.39 1.63 4.6 1.09 1.21 2.43 1.82 4.03 1.82 1.53 0 2.8-.47 3.81-1.41 1.01-.94 1.52-2.12 1.52-3.55s-.4-2.57-1.19-3.44c-.79-.87-2.25-1.68-4.37-2.43-3.35-1.15-5.55-2.35-6.59-3.59-1.04-1.24-1.56-2.88-1.56-4.94 0-2.33.86-4.3 2.57-5.93 1.71-1.62 3.8-2.44 6.27-2.44 2.6 0 4.66.72 6.19 2.17.77.74 1.38 1.61 1.81 2.61.43 1 .65 2.14.65 3.43h-4.17c0-.7-.12-1.32-.35-1.85-.23-.53-.56-1-.99-1.4-.43-.4-.92-.69-1.46-.89-.54-.2-1.18-.3-1.92-.3-1.27 0-2.33.42-3.18 1.26-.85.84-1.27 1.88-1.27 3.13 0 .87.17 1.61.51 2.22.34.61.9 1.15 1.69 1.62.78.47 1.88.91 3.3 1.33 1.42.41 2.36.72 2.82.92 1.86.78 3.25 1.83 4.16 3.17.91 1.34 1.37 3.01 1.37 5.03 0 2.53-.91 4.64-2.74 6.33-1.82 1.7-4.14 2.54-6.94 2.54-2.86 0-5.15-.91-6.88-2.73-.88-.96-1.56-2.04-2.03-3.27-.46-1.22-.7-2.59-.7-4.12zm50.32 4.65c-1.2 1.69-2.83 3.02-4.91 4-2.07.98-4.31 1.47-6.73 1.47-4.44 0-8.15-1.49-11.12-4.48-2.98-2.99-4.46-6.67-4.46-11.05 0-4.44 1.52-8.16 4.56-11.16 3.04-3 6.83-4.51 11.36-4.51 2.32 0 4.45.46 6.4 1.39 1.94.93 3.58 2.27 4.91 4.02V17.4h3.81v29.79h-3.81v-4.7zm0-10.38c0-3.14-1.15-5.89-3.46-8.25-2.3-2.36-4.96-3.54-7.96-3.54-3.26 0-6.04 1.18-8.33 3.53-2.29 2.35-3.44 5.27-3.44 8.75 0 3.3 1.14 6.1 3.41 8.39 2.28 2.29 5.03 3.44 8.25 3.44 3.09 0 5.79-1.2 8.08-3.61 2.3-2.42 3.45-5.32 3.45-8.71z"/>

  <path fill="#f60" d="M153.8 49.64c.57 1.73 1.63 3.08 3.19 4.05 1.56.96 3.44 1.45 5.65 1.45 3.46 0 6.24-1.13 8.33-3.39 2.09-2.26 3.13-5.27 3.13-9.05v-.79c-1.47 1.97-3.16 3.45-5.06 4.46-1.9 1-3.96 1.5-6.19 1.5-4.55 0-8.34-1.49-11.37-4.48-3.03-2.99-4.54-6.71-4.54-11.17 0-4.39 1.49-8.07 4.48-11.05 2.98-2.98 6.68-4.47 11.08-4.47 2.58 0 4.8.45 6.66 1.34 1.86.89 3.51 2.31 4.95 4.24V17.4h3.81v24.86c0 5.22-1.33 9.29-3.99 12.2-2.66 2.92-6.33 4.37-11.01 4.37-3.43 0-6.37-.83-8.83-2.49-2.46-1.66-4.07-3.9-4.82-6.72h4.53zm-2.71-17.57c0 3.47 1.14 6.38 3.41 8.73 2.27 2.36 4.99 3.54 8.17 3.54 2.99 0 5.65-1.18 7.96-3.54 2.32-2.36 3.48-5.12 3.48-8.3 0-3.38-1.14-6.27-3.42-8.68-2.28-2.41-4.96-3.62-8.02-3.62-3.16 0-5.88 1.14-8.16 3.43-2.28 2.28-3.42 5.1-3.42 8.44zm31.91.27c0-4.37 1.53-8.11 4.59-11.21 3.06-3.11 6.68-4.66 10.86-4.66 4.38 0 8.13 1.53 11.25 4.58 3.11 3.05 4.67 6.69 4.67 10.92 0 4.44-1.52 8.23-4.56 11.38-3.04 3.14-6.73 4.71-11.05 4.71-4.4 0-8.13-1.54-11.18-4.62-3.06-3.09-4.58-6.79-4.58-11.1zm4.09-.06c0 3.41 1.11 6.28 3.33 8.61 2.22 2.33 5 3.49 8.33 3.49 3.28 0 6.02-1.16 8.22-3.48 2.2-2.32 3.3-5.21 3.3-8.68 0-3.52-1.12-6.41-3.34-8.68-2.23-2.27-5.08-3.4-8.54-3.4-3.08 0-5.73 1.16-7.96 3.49-2.23 2.34-3.34 5.22-3.34 8.65z"/>

  <path fill="#c1c1c1" d="M15.61 52.68h.97v3.3c.27-.34.61-.59 1.01-.77.4-.17.85-.26 1.33-.26 1.06 0 1.85.3 2.34.91.5.6.74 1.58.74 2.93v3.81h-.97v-3.82c0-1.08-.17-1.83-.5-2.26-.34-.43-.89-.64-1.67-.64-.44 0-.83.09-1.17.26-.34.17-.61.43-.8.75-.12.2-.2.43-.26.7-.05.29-.07.74-.07 1.36v3.64h-.97v-9.91zm8.13 6.18c0-1.1.38-2.04 1.15-2.82.77-.78 1.68-1.17 2.73-1.17 1.1 0 2.04.38 2.83 1.15.78.77 1.17 1.68 1.17 2.74 0 1.12-.38 2.07-1.15 2.86-.76.79-1.69 1.18-2.78 1.18-1.11 0-2.04-.39-2.81-1.16-.75-.77-1.14-1.7-1.14-2.78zm1.03-.02c0 .86.28 1.58.84 2.17.56.59 1.26.88 2.09.88.82 0 1.51-.29 2.07-.88.55-.58.83-1.31.83-2.18 0-.88-.28-1.61-.84-2.18-.56-.57-1.28-.85-2.15-.85-.77 0-1.44.29-2 .88-.56.58-.84 1.3-.84 2.16zm14.61-2.56c.31-.43.69-.76 1.15-.98.46-.22.98-.34 1.55-.34 1.03 0 1.78.31 2.26.92.48.61.72 1.59.72 2.94v3.78h-.94v-3.98c0-.98-.17-1.69-.5-2.11-.33-.42-.88-.63-1.63-.63-.43 0-.81.09-1.14.26-.33.17-.6.42-.8.76-.11.21-.19.44-.25.7-.02.12-.04.3-.06.53-.01.23-.02.51-.02.83v3.64h-.92v-4.2c0-.86-.18-1.5-.53-1.91-.36-.41-.9-.62-1.64-.62-.44 0-.83.09-1.17.26-.34.17-.61.43-.8.75-.12.2-.2.43-.26.7-.05.29-.07.74-.07 1.36v3.64h-.97v-7.49h.97v.85c.29-.32.63-.57 1.04-.74.4-.17.85-.26 1.34-.26.58 0 1.11.12 1.58.35.47.26.83.58 1.09.99zm15.34 2.87h-6.9c0 .4.08.77.24 1.11.15.31.37.6.66.87.54.5 1.22.76 2.03.76.57 0 1.08-.15 1.55-.44.46-.29.82-.7 1.07-1.23h1.11c-.35.83-.84 1.46-1.48 1.91-.64.45-1.38.67-2.22.67-1.11 0-2.05-.39-2.82-1.17-.77-.78-1.16-1.71-1.16-2.79 0-1.13.38-2.08 1.13-2.82.75-.75 1.71-1.12 2.89-1.12 1.14 0 2.07.39 2.8 1.17.73.78 1.09 1.78 1.09 3.02v.06zm-1.08-.81c-.18-.83-.52-1.46-1.02-1.89-.5-.43-1.15-.64-1.94-.64-.37 0-.71.06-1.02.17-.31.11-.6.29-.86.52-.51.45-.83 1.06-.94 1.84h5.78zm2.32 1.9h1.01v.03c0 .47.14.85.41 1.16.27.31.61.46 1.01.46.38 0 .7-.12.96-.35.25-.24.38-.53.38-.89s-.1-.65-.3-.86c-.2-.22-.57-.42-1.1-.61-.84-.29-1.4-.59-1.66-.9-.26-.31-.39-.72-.39-1.24 0-.58.22-1.08.65-1.49.43-.41.96-.61 1.58-.61.65 0 1.17.18 1.56.54.19.19.35.41.46.66.11.25.16.54.16.86h-1.05c0-.18-.03-.33-.09-.47-.06-.13-.14-.25-.25-.35-.11-.1-.23-.17-.37-.22-.14-.05-.3-.07-.48-.07A1.093 1.093 0 0 0 57.33 57c0 .22.04.4.13.56.09.15.23.29.42.41.2.12.47.23.83.33s.59.18.71.23c.47.2.82.46 1.05.8.23.34.34.76.34 1.27 0 .63-.23 1.17-.69 1.59-.46.43-1.04.64-1.74.64-.72 0-1.29-.23-1.73-.69-.22-.24-.39-.51-.51-.82-.12-.35-.18-.7-.18-1.08zm10.81-1.38c0-1.1.38-2.04 1.15-2.82.77-.78 1.68-1.17 2.73-1.17 1.1 0 2.04.38 2.83 1.15.78.77 1.17 1.68 1.17 2.74 0 1.12-.38 2.07-1.15 2.86-.76.79-1.69 1.18-2.78 1.18-1.11 0-2.04-.39-2.81-1.16-.75-.77-1.14-1.7-1.14-2.78zm1.03-.02c0 .86.28 1.58.84 2.17.56.59 1.26.88 2.09.88.82 0 1.51-.29 2.07-.88.55-.58.83-1.31.83-2.18 0-.88-.28-1.61-.84-2.18-.56-.57-1.28-.85-2.15-.85-.77 0-1.44.29-2 .88-.56.58-.84 1.3-.84 2.16zm8.61-3.73h.95v.85c.3-.34.65-.59 1.05-.76.4-.16.85-.25 1.36-.25.55 0 1.05.1 1.49.31.44.2.79.5 1.05.88.18.27.3.58.38.95.08.36.11.89.11 1.59v3.92h-.97v-4.2c0-.88-.17-1.52-.52-1.92-.34-.4-.9-.6-1.66-.6-.44 0-.83.09-1.17.26s-.61.43-.8.75c-.12.2-.2.43-.26.7-.05.29-.07.74-.07 1.36v3.64h-.95v-7.48zm13.82 7.49v-6.52h-1.45v-.97h1.45v-2.42h.98v2.42h1.45v.97h-1.45v6.52h-.98zm3.8-9.92H95v3.3c.27-.34.61-.59 1.01-.77.4-.17.85-.26 1.33-.26 1.07 0 1.85.3 2.34.91.5.6.74 1.58.74 2.93v3.81h-.97v-3.82c0-1.08-.17-1.83-.5-2.26-.34-.43-.89-.64-1.67-.64-.44 0-.83.09-1.17.26-.34.17-.61.43-.8.75-.12.2-.2.43-.26.7-.05.29-.07.74-.07 1.36v3.64h-.97v-9.91zm16.04 6.47h-6.9c0 .4.08.77.24 1.11.15.31.37.6.66.87.54.5 1.22.76 2.03.76.57 0 1.08-.15 1.55-.44.46-.29.82-.7 1.07-1.23h1.11c-.35.83-.84 1.46-1.48 1.91-.64.45-1.38.67-2.22.67-1.11 0-2.05-.39-2.82-1.17-.77-.78-1.16-1.71-1.16-2.79 0-1.13.38-2.08 1.13-2.82.75-.75 1.71-1.12 2.89-1.12 1.14 0 2.07.39 2.8 1.17.73.78 1.09 1.78 1.09 3.02v.06zm-1.08-.81c-.18-.83-.52-1.46-1.02-1.89-.5-.43-1.15-.64-1.94-.64-.37 0-.71.06-1.02.17-.32.11-.6.29-.86.52-.51.45-.83 1.06-.94 1.84h5.78zm8.73 4.87c.14.44.41.78.8 1.02.39.24.86.36 1.42.36.87 0 1.57-.28 2.1-.85s.79-1.33.79-2.27v-.2c-.37.5-.79.87-1.27 1.12-.48.25-1 .38-1.56.38-1.14 0-2.1-.38-2.86-1.13-.76-.75-1.14-1.69-1.14-2.81 0-1.1.38-2.03 1.13-2.78.75-.75 1.68-1.12 2.79-1.12.65 0 1.2.11 1.67.34.47.22.88.58 1.24 1.07v-1.23h.96v6.25c0 1.31-.33 2.33-1 3.07-.67.73-1.59 1.1-2.77 1.1-.86 0-1.6-.21-2.22-.63-.62-.42-1.02-.98-1.21-1.69h1.13zm-.68-4.42c0 .87.29 1.6.86 2.2.57.59 1.26.89 2.05.89.75 0 1.42-.3 2-.89.58-.59.87-1.29.87-2.09 0-.85-.29-1.58-.86-2.18-.57-.61-1.25-.91-2.02-.91-.79 0-1.48.29-2.05.86-.57.57-.85 1.28-.85 2.12zm8.44.07c0-1.1.38-2.04 1.15-2.82.77-.78 1.68-1.17 2.73-1.17 1.1 0 2.04.38 2.83 1.15.78.77 1.17 1.68 1.17 2.74 0 1.12-.38 2.07-1.15 2.86-.76.79-1.69 1.18-2.78 1.18-1.11 0-2.04-.39-2.81-1.16-.75-.77-1.14-1.7-1.14-2.78zm1.03-.02c0 .86.28 1.58.84 2.17.56.59 1.26.88 2.09.88.82 0 1.51-.29 2.07-.88.55-.58.83-1.31.83-2.18 0-.88-.28-1.61-.84-2.18-.56-.57-1.28-.85-2.15-.85-.77 0-1.44.29-2 .88-.56.58-.84 1.3-.84 2.16z"/>

  <path fill="#c1c1c1" d="M224.23 36.76c-1.04 18.31-20.16 30.22-43.06 32.05-26.53 2.12-39.78-13.12-39.78-13.12h-4.92s6.97 9.13 21.43 13.74c26.76 7.18 53.42-4.1 62.24-16.2 4.74-6.5 5.62-12.38 5.34-16.6l-1.25.13zm-.41-6.82s1.38 2.55 1.65 6.68l6.28-.69L223 22.6l-4.24 14.76 5.47-.6c.12-2.19 0-4.46-.41-6.82z"/>
</svg>
