<svg viewBox="0 0 884 533" version="1.1" xmlns="http://www.w3.org/2000/svg" xmlns:xlink="http://www.w3.org/1999/xlink">
    <g stroke="none" stroke-width="1" fill="none" fill-rule="evenodd" stroke-linejoin="round">
        <g transform="translate(-258.000000, -3704.000000)">
            <g transform="translate(203.000000, 3476.000000)">
                <g transform="translate(56.686358, 229.000000)">
                    <path d="M855.51434,131.229379 L855.22316,131.035259 L855.22316,131.326449 L855.51434,131.229349 L855.51434,131.229379 Z M852.60245,128.608679 L853.28189,128.317489 L853.28189,127.929239 L852.60245,128.608679 Z M864.63828,121.037759 L864.54118,119.678869 L864.34706,118.902369 L864.63825,121.037759 L864.63828,121.037759 Z M822.22169,111.040259 L821.54225,111.331449 L816.00965,112.981519 L814.06839,113.660959 L811.83594,114.340399 L811.05944,114.631589 L811.05944,114.922779 L811.35062,119.970059 L811.64181,124.629089 L811.933,128.899869 L812.41832,129.191059 L814.16546,128.705739 L822.02757,126.376229 L822.22169,126.861539 L836.19878,121.523069 L836.29588,121.717199 L837.5577,121.231879 L842.0226,119.484749 L846.29338,124.629089 L846.29338,124.629089 L846.87576,124.143779 L847.16695,122.687829 L847.06985,125.017349 L847.06985,125.017349 L848.04048,125.017349 L848.33167,126.182099 L849.20524,127.832179 L849.20524,127.832179 L853.76721,122.299579 L857.55267,123.561399 L858.42624,121.620139 L864.63828,118.319989 L862.01757,113.175639 L862.69702,116.475789 L859.49393,118.902369 L855.9026,119.193559 L848.71993,111.525569 L845.51684,106.672419 L848.71993,103.275209 L845.41978,103.081079 L844.0609,99.877999 L843.9638,99.683869 L838.43121,105.701779 L826.20125,109.778439 L822.22166,111.040259 L822.22166,111.040259 L822.22169,111.040259 Z" id="MA" stroke="#F8F8F8" stroke-width="1.970631" fill="#F5831F"></path>
                    <polygon id="MN" stroke="#F8F8F8" stroke-width="1.970631" fill="#F5831F" points="457.74968 52.025878 459.69094 58.91736 463.76759 83.765519 465.70885 93.665959 466.29123 102.401639 468.52369 107.643049 469.009 112.107949 469.39725 113.563899 469.30015 113.855089 465.41763 120.261249 467.94127 124.532029 472.79442 158.698249 472.98855 163.163149 477.8417 162.871959 496.96314 161.804269 544.71819 157.824679 549.47429 157.339359 549.47429 156.854049 548.1154 149.380189 542.19455 146.371229 537.53552 141.518079 530.15873 137.053169 527.82921 136.859049 524.23788 134.141279 525.20851 120.746569 521.8113 117.640549 522.97606 112.205009 529.1881 106.575349 528.1204 94.927779 530.35285 92.404139 530.35285 92.404139 537.92378 84.444959 546.56239 73.379764 549.86254 71.05025 555.68633 68.235419 561.8013 63.673452 557.72465 64.449957 555.29807 62.605758 545.98001 63.867579 544.52407 62.120443 536.17664 65.517652 529.47928 62.702821 527.63509 60.470369 522.29661 60.858622 518.70528 59.014423 519.87004 57.655539 515.30807 56.199592 511.23142 56.199592 504.72819 59.014423 503.46637 57.07316 493.17768 55.617213 489.68341 46.881533 489.29515 44.260828 484.83025 42.999008 485.2185 50.472868 473.3768 51.346436 458.72027 51.928815 457.74964 52.025875"></polygon>
                    <polygon id="MT" stroke="#F8F8F8" stroke-width="1.970631" fill="#0076BD" points="364.86027 51.15231 332.73238 49.016921 309.34017 46.78447 286.04502 44.066702 271.58261 42.12544 248.48159 38.534104 236.93108 36.592842 211.11229 31.642623 208.39452 31.060244 204.22081 50.861121 206.06501 54.452456 207.52096 59.985054 206.64739 60.761559 208.49159 65.808841 211.01523 67.94423 218.1979 79.980059 218.87734 82.018379 221.78923 81.824259 218.39202 97.742609 217.03314 98.130859 215.18894 103.469329 224.79819 104.148769 225.5747 108.613679 231.01023 121.911329 231.98086 122.687829 235.76632 130.452879 236.73695 129.676379 244.79319 129.579279 254.98482 130.646979 257.50846 127.346829 260.51742 132.782359 261.0998 133.073549 261.1969 132.491179 262.55578 122.978989 295.75137 127.055639 322.2496 129.579279 336.22669 130.744039 361.17191 132.199989 362.43373 132.297089 362.72492 132.297089 362.82202 130.938209 363.11321 124.240849 363.50146 115.408109 363.59856 113.175649 363.79269 109.293129 365.3457 78.815309 366.60752 55.131908 366.70462 51.249383 364.86042 51.152323"></polygon>
                    <polygon id="ND" stroke="#F8F8F8" stroke-width="1.970631" fill="#0076BD" points="455.71135 52.025878 426.39829 52.608257 405.91797 52.511197 388.34955 52.122944 367.77217 51.346439 366.70447 51.249379 366.60737 55.131904 365.34555 78.815309 363.79254 109.293129 363.59841 113.175649 367.38387 113.369779 410.18871 114.534539 449.6934 114.243349 466.09707 113.758029 469.39721 113.563909 469.00896 112.107959 468.52365 107.643059 466.29119 102.401649 465.70881 93.665969 463.76755 83.765529 459.6909 58.917366 457.74964 52.025884 455.71131 52.025884"></polygon>
                    <path d="M315.55221,493.177759 L312.54325,490.945309 L309.92255,491.624749 L310.50493,497.060279 L306.91359,501.525189 L310.01961,508.610799 L310.89318,515.890529 L314.48451,518.220039 L316.71697,514.628709 L320.69655,511.716819 L325.54971,510.454989 L330.88818,505.893029 L325.64677,501.428119 L325.54967,498.710359 L315.55217,493.177759 L315.55221,493.177759 Z M297.88672,485.315649 L296.43077,484.053829 L295.07189,485.898029 L297.88672,485.315649 Z M290.60699,481.141929 L290.99524,477.550599 L289.15104,477.259409 L290.60699,481.141929 Z M296.72196,475.221079 L295.07189,475.997589 L296.23665,479.685989 L298.76029,479.880109 L299.53679,483.083189 L302.25456,484.247949 L308.27247,481.433119 L302.64281,476.774089 L296.72196,475.221079 L296.72196,475.221079 Z M284.29788,471.241489 L283.42432,473.862199 L287.59803,473.765099 L291.48055,474.735729 L289.44223,471.532639 L284.29788,471.241449 L284.29788,471.241489 Z M272.06793,463.573509 L269.83548,461.438119 L265.5647,464.738269 L268.28247,469.785549 L270.22373,467.747219 L275.75633,468.911979 L275.27101,466.582459 L272.06793,463.573509 L272.06793,463.573509 Z M228.58365,459.302729 L229.16603,457.943849 L230.8161,457.070279 L228.58365,459.302729 L228.58365,459.302729 Z M244.01669,450.469989 L237.22227,452.993629 L236.54283,454.837829 L239.2606,456.779089 L243.04606,457.749719 L245.76382,452.411249 L244.01669,450.469989 L244.01669,450.469989 Z M196.94108,432.610369 L196.94108,432.513269 L196.74695,432.513269 L196.94108,432.610369 Z M145.49762,419.895099 L145.49762,420.089229 L145.59472,420.089229 L145.49762,419.895099 Z M116.57281,412.518309 L116.37869,412.518309 L116.37869,412.615409 L116.57281,412.518309 Z M86.67733,387.378929 L86.58023,387.087739 L86.58023,387.184839 L86.67733,387.378969 L86.67733,387.378929 Z M20.18909,366.122109 L19.8979,366.413289 L20.09203,366.510389 L20.18913,366.122139 L20.18909,366.122109 Z" id="HI" stroke="#F8F8F8" stroke-width="1.970631" fill="#F5831F"></path>
                    <polygon id="ID" stroke="#F8F8F8" stroke-width="1.970631" fill="#0076BD" points="208.29746 31.060244 199.65884 29.313108 196.84401 28.633666 195.58219 28.342477 184.32287 79.009429 184.80819 83.183139 184.41993 87.550979 184.61406 88.521609 184.61406 88.618709 184.71116 90.462899 188.01131 94.054239 183.25522 105.992999 173.16065 119.193589 172.86946 121.620169 175.49017 127.832209 166.26917 166.075079 165.88092 168.113399 168.59868 168.695779 196.06755 174.131309 207.03568 176.169639 209.85051 176.654959 212.56828 177.140269 226.54537 179.372719 251.58765 183.158179 254.40248 183.546439 254.79073 180.343349 255.6643 174.034249 258.96445 148.797839 260.71159 136.276699 261.09984 133.073609 260.51746 132.782419 257.5085 127.346889 254.98486 130.647039 244.79323 129.579339 236.73699 129.676439 235.76636 130.452939 231.9809 122.687889 231.01027 121.911389 225.57474 108.613739 224.79823 104.148829 215.18898 103.469389 217.03318 98.130919 218.39206 97.742669 221.78927 81.824319 218.87738 82.018439 218.19794 79.980119 211.01527 67.94429 208.49163 65.808901 206.64743 60.761619 207.521 59.985114 206.06505 54.452516 204.22085 50.861181 208.39456 31.060304 208.29746 31.060304"></polygon>
                    <path d="M91.3364,55.228961 L91.4335,53.578888 L91.23938,53.675948 L91.33648,55.228961 L91.3364,55.228961 Z M112.01085,46.39622 L112.59322,45.425586 L111.91378,45.328526 L112.01088,46.39622 L112.01085,46.39622 Z M110.16665,44.649081 L110.74902,42.707819 L110.16665,42.513692 L110.16665,44.649081 L110.16665,44.649081 Z M117.25225,41.83425 L117.15515,39.892988 L115.50508,42.416629 L117.25221,41.83425 L117.25225,41.83425 Z M117.44638,37.757599 L117.73757,35.816337 L117.54344,35.331021 L117.44634,37.757599 L117.44638,37.757599 Z M117.73757,28.245417 L117.64047,27.177719 L117.25221,27.080659 L117.73753,28.245417 L117.73757,28.245417 Z M120.84359,21.839248 L119.97002,21.742188 L118.22289,24.459955 L120.84359,21.839251 L120.84359,21.839248 Z M118.41701,19.218543 L118.90233,18.830291 L118.99943,18.539102 L118.41705,19.218543 L118.41701,19.218543 Z M117.9317,19.509733 L117.64051,17.56847 L116.76694,19.218543 L117.9317,19.509733 Z M117.44638,16.791965 L116.57281,16.403713 L117.25225,17.374344 L117.44638,16.791965 L117.44638,16.791965 Z M120.35827,18.442039 L120.35827,17.180218 L120.06708,17.665534 L120.35827,18.442039 Z M121.23184,17.180218 L120.84359,16.889029 L120.74649,16.889029 L121.2318,17.180218 L121.23184,17.180218 Z M115.69924,15.044829 L115.21393,14.656577 L115.0198,14.559517 L115.69924,15.044832 L115.69924,15.044829 Z M119.29058,14.656577 L116.66988,15.336019 L117.34932,15.530145 L119.29058,14.656577 Z M117.15519,14.462451 L116.66988,13.880072 L116.57278,13.977132 L117.15516,14.462448 L117.15519,14.462451 Z M119.19352,13.297693 L118.80526,13.297693 L119.29058,13.491819 L119.19348,13.297693 L119.19352,13.297693 Z M100.16914,63.091074 L103.66342,66.876535 L103.08104,74.156269 L103.76048,76.000469 L109.00189,78.815299 L123.75548,80.174179 L124.33786,81.921319 L131.32641,82.018419 L137.9267,82.891989 L148.7007,81.727229 L154.03918,82.600799 L155.49512,81.921359 L182.76986,88.133399 L184.61406,88.521649 L184.41993,87.551019 L184.80819,83.183179 L184.32287,79.009469 L195.58219,28.342517 L194.02918,28.051327 L171.31641,22.712856 L151.51554,17.665574 L129.09395,11.453534 L122.3966,9.803461 L123.94961,18.247952 L122.49366,20.96572 L119.87296,19.606836 L122.3966,31.351473 L119.67883,35.233998 L118.41701,38.825334 L118.41701,42.513732 L112.69029,46.49332 L110.26371,44.94031 L107.93419,46.105068 L112.20497,40.57247 L111.13728,44.357932 L113.56386,41.737227 L115.50512,42.12548 L114.92274,37.272324 L116.18456,37.46645 L118.80526,31.642663 L117.9317,30.769095 L114.53449,35.136935 L112.30203,35.233995 L114.72861,32.516228 L117.44638,31.836786 L116.47575,26.886567 L113.75798,26.207125 L112.3991,23.87761 L110.74902,24.751178 L101.81922,20.868654 L93.95711,14.753677 L91.82172,20.674527 L91.62759,23.198168 L93.27766,27.663072 L92.20997,42.125477 L91.43346,44.357929 L95.8013,44.746181 L91.43346,47.852201 L93.76298,49.016958 L91.91878,55.228998 L91.04521,50.375842 L89.39514,56.005503 L91.62759,58.72327 L94.05417,58.529144 L96.96606,60.27628 L98.42201,63.091111 L100.16914,63.091111 L100.16914,63.091111 L100.16914,63.091074 Z" id="WA" stroke="#F8F8F8" stroke-width="1.970631" fill="#0076BD"></path>
                    <polygon id="AZ" stroke="#F8F8F8" stroke-width="1.970631" fill="#F5831F" points="271.38849 288.083389 238.67822 284.006739 221.10979 281.483089 196.06751 277.503509 193.54387 277.115249 193.54387 277.309379 189.27309 296.139629 187.04064 296.042529 183.64343 293.033579 179.37265 296.624909 179.27555 312.057949 177.72254 315.358089 177.72254 315.649279 177.72254 315.746379 177.52841 318.172949 180.92562 327.296889 183.93458 331.373539 178.49904 334.576619 176.36365 338.556209 172.86938 347.097759 171.12225 347.486019 171.02515 354.571619 174.03411 356.804079 172.4811 361.074849 168.98683 361.268979 168.98683 361.268979 166.9485 365.054439 173.93705 369.422279 187.13763 376.799079 227.90414 398.444149 262.45861 402.714929 262.84686 402.714929 265.56463 374.081309 266.24407 366.995699 273.52381 291.868849 273.91206 288.374579 271.38842 288.083389"></polygon>
                    <path d="M105.21643,341.953419 L105.60468,344.088809 L105.60468,344.477059 L105.21643,341.953419 Z M90.94815,333.605989 L91.62759,335.061939 L92.01584,334.964839 L90.94815,333.605959 L90.94815,333.605989 Z M107.93419,333.314799 L108.22538,335.838439 L109.97252,337.100259 L107.93419,333.314799 Z M96.18956,319.531839 L95.12186,319.240649 L95.99543,319.628899 L96.18956,319.531799 L96.18956,319.531839 Z M85.41555,316.619939 L82.79485,318.172949 L83.47429,318.852399 L85.41555,316.619939 L85.41555,316.619939 Z M80.36827,314.775739 L80.17414,315.552249 L81.04771,315.746379 L80.36827,314.775739 L80.36827,314.775739 Z M88.90982,316.717009 L93.1806,319.143589 L93.95711,318.464139 L88.90982,316.717009 Z M66.19705,231.689709 L66.09995,231.398519 L66.09995,231.786779 L66.19705,231.689679 L66.19705,231.689709 Z M122.20247,158.018809 L118.41701,157.048169 L76.874,145.594729 L61.44096,140.935699 L61.44096,141.323949 L60.56739,150.933199 L56.49074,162.289579 L49.69632,170.734069 L49.5022,175.004849 L52.80234,180.925699 L54.45242,188.690749 L52.1229,194.999849 L52.51115,201.308959 L51.3464,203.929659 L55.32598,212.568279 L57.84962,215.868429 L57.6555,225.283549 L63.67341,231.010269 L67.16768,225.186489 L70.95315,228.195439 L72.40909,226.836559 L67.16768,227.807189 L67.07058,232.757409 L68.13828,238.969449 L65.22638,236.154619 L63.57631,232.369159 L63.09099,237.610559 L64.44988,247.996319 L69.88541,254.693669 L66.29408,259.352699 L66.87645,265.273549 L70.75898,271.291469 L77.5534,289.927589 L79.68879,291.092339 L79.00934,304.001739 L80.07704,305.554749 L94.63651,310.796159 L99.10141,315.552249 L100.65442,318.658269 L104.9252,321.084849 L109.58423,321.958419 L111.52549,327.296889 L115.40801,329.141089 L121.2318,336.032569 L126.66734,345.059439 L126.27908,353.406869 L129.28804,357.386449 L168.98686,361.268979 L168.98686,361.268979 L172.48113,361.074849 L174.03414,356.804079 L171.02518,354.571619 L171.12228,347.486019 L172.86941,347.097759 L176.36368,338.556209 L178.49907,334.576619 L183.93461,331.373539 L180.92565,327.296889 L177.52844,318.172949 L177.72257,315.746379 L177.72257,315.649279 L175.19893,312.252069 L167.43388,301.866319 L152.38909,280.706559 L131.42346,250.616989 L119.58176,234.213329 L108.12831,217.712589 L121.32889,161.707169 L122.20246,158.018779 L122.20247,158.018809 Z" id="CA" stroke="#F8F8F8" stroke-width="1.970631" fill="#0076BD"></path>
                    <polygon id="CO" stroke="#F8F8F8" stroke-width="1.970631" fill="#0076BD" points="388.83486 233.728039 389.22312 214.703669 384.56409 214.509539 360.88069 213.635969 358.55117 213.538869 356.60991 213.441769 327.78216 211.597569 308.56366 210.044559 284.58907 207.715039 282.25956 207.423849 281.96837 209.947499 276.72696 260.517379 274.88276 278.182869 274.10626 285.850859 273.91213 288.374499 276.92109 288.665689 325.8409 292.936459 347.38891 294.295349 368.83986 295.265979 371.94588 295.363079 373.88714 295.460179 377.96379 295.557279 379.90506 295.654379 386.02003 295.848509 387.57304 295.848509 387.57304 293.907239 388.64074 242.560849 388.73784 236.834129 388.73784 234.989929 388.83494 233.728109"></polygon>
                    <polygon id="NV" stroke="#F8F8F8" stroke-width="1.970631" fill="#F5831F" points="194.02918 274.009229 204.12375 211.209399 209.26809 179.760939 209.85047 176.654929 207.03564 176.169609 196.06751 174.131279 168.59864 168.695749 165.88088 168.113369 163.16311 167.530989 149.47721 164.522039 124.92024 158.698249 122.20247 158.018809 121.3289 161.707199 108.12832 217.712619 119.58177 234.213359 131.42347 250.617019 152.3891 280.706589 167.43389 301.866349 175.19894 312.252099 177.72258 315.649309 177.72258 315.358119 179.27559 312.057979 179.37269 296.624939 183.64347 293.033609 187.04068 296.042559 189.27313 296.139659 193.54391 277.309409 193.54391 277.115279 194.02922 274.009259"></polygon>
                    <polygon id="NM" stroke="#F8F8F8" stroke-width="1.970631" fill="#0076BD" points="371.65469 302.934039 371.75179 300.410399 371.84889 297.886759 371.94599 295.363119 368.83997 295.266019 347.38902 294.295389 325.84101 292.936499 276.9212 288.665729 273.91224 288.374539 273.52399 291.868809 266.24425 366.995659 265.56481 374.081269 262.84704 402.714889 263.2353 402.811989 276.63001 404.073819 277.89183 397.279399 280.31841 395.338129 307.49608 397.764709 307.69021 397.764709 305.26363 393.008619 317.59064 393.882189 348.35965 395.629319 367.57815 396.502889 370.8783 305.457689 371.55774 305.554789 371.65484 302.934079"></polygon>
                    <path d="M61.44096,140.935699 L76.874,145.594729 L118.41701,157.048169 L122.20247,158.018809 L124.92024,158.698249 L149.47721,164.522039 L163.16311,167.530989 L165.88088,168.113369 L166.26913,166.075049 L175.49013,127.832179 L172.86942,121.620139 L173.16061,119.193559 L183.25518,105.992969 L188.01127,94.054209 L184.71112,90.462869 L184.61402,88.618679 L184.61402,88.521579 L182.76982,88.133329 L155.49508,81.921289 L154.03914,82.600729 L148.70066,81.727159 L137.92666,82.891919 L131.32637,82.018349 L124.33782,81.921249 L123.75544,80.174109 L109.00185,78.815229 L103.76044,76.000399 L103.081,74.156199 L103.66338,66.876465 L100.1691,63.091004 L99.87792,63.188064 L99.19847,63.673379 L94.34532,61.149738 L91.43342,62.023306 L89.49216,61.052675 L87.45384,69.400104 L86.09495,71.729618 L80.07704,86.386149 L78.3299,94.442389 L77.26221,94.539489 L71.63255,107.934199 L67.84709,113.660919 L66.4882,114.631549 L62.99393,121.425969 L62.31449,128.608639 L60.1791,135.014809 L61.44092,140.838589 L61.44092,140.935689 L61.44096,140.935699 Z M96.96606,61.246874 L96.67487,60.373306 L96.57777,61.052748 L96.96602,61.246874 L96.96606,61.246874 Z" id="OR" stroke="#F8F8F8" stroke-width="1.970631" fill="#0076BD"></path>
                    <polygon id="UT" stroke="#F8F8F8" stroke-width="1.970631" fill="#0076BD" points="251.58761 183.158149 226.54533 179.372689 212.56824 177.140239 209.85047 176.654929 209.26809 179.760939 204.12375 211.209399 194.02918 274.009229 193.54387 277.115249 196.06751 277.503509 221.10979 281.483089 238.67822 284.006739 271.38849 288.083389 273.91213 288.374579 274.10626 285.850939 274.88276 278.182949 276.72696 260.517459 281.96837 209.947579 282.25956 207.423929 280.3183 207.229809 255.5672 204.220849 251.78174 203.735539 254.20832 184.808229 254.40244 183.546409 251.58761 183.158149"></polygon>
                    <polygon id="WY" stroke="#F8F8F8" stroke-width="1.970631" fill="#F5831F" points="360.5895 170.345819 361.366 155.203979 362.33663 134.820719 362.43373 132.297079 361.17191 132.199979 336.22669 130.744029 322.2496 129.579269 295.75137 127.055629 262.55578 122.978979 261.1969 132.491169 261.0998 133.073539 260.71155 136.276629 258.96441 148.797769 255.66426 174.034179 254.79069 180.343279 254.40244 183.546369 254.20832 184.808189 251.78174 203.735499 255.5672 204.220809 280.3183 207.229769 282.25956 207.423889 284.58907 207.715079 308.56366 210.044599 327.78216 211.597609 356.60991 213.441809 358.55117 213.538909 358.64827 211.015269 359.13359 200.823639 360.00716 183.061089 360.39541 175.490169 360.49251 172.966529 360.58961 170.345819"></polygon>
                    <polygon id="AR" stroke="#F8F8F8" stroke-width="1.970631" fill="#0076BD" points="589.65846 306.234189 579.17564 307.787199 583.44642 300.992779 581.60222 297.207319 544.62117 300.798659 513.36685 303.322299 508.80488 303.613489 509.38726 306.331249 513.17272 325.937999 513.26982 330.305839 514.33752 356.707009 514.43462 361.074849 514.72581 361.171949 516.18176 362.724959 522.00554 362.530829 522.58792 371.072379 522.78205 373.498959 525.79101 373.207769 535.012 372.528329 571.6048 369.131119 571.79892 369.131119 571.70182 366.995729 572.67245 366.316289 570.92532 363.016149 574.61372 347.486049 573.15777 345.738909 578.69037 339.623929 578.30211 334.382529 582.37876 327.588109 582.37876 327.491009 582.18464 327.296889 585.67891 324.093799 584.70828 320.211279 587.42605 315.940499 586.84367 311.960909 589.75556 306.331249 589.75556 306.234149 589.65846 306.234149"></polygon>
                    <polygon id="IA" stroke="#F8F8F8" stroke-width="1.970631" fill="#F5831F" points="560.73365 175.878419 555.39518 173.063589 552.48328 169.083999 551.51265 163.357279 552.28916 160.736569 549.47433 157.339359 549.47433 157.339359 544.71823 157.824679 496.96318 161.804269 477.84174 162.871959 472.98859 163.163149 470.95026 163.260249 472.60034 174.034259 471.24145 179.178609 473.37684 182.381689 473.37684 183.061129 474.05628 183.158229 477.1623 192.282169 480.17126 197.038259 480.36539 202.473799 483.66553 207.035759 483.08315 208.977019 486.09211 221.206979 486.09211 221.498169 486.09211 221.498169 505.99005 220.915789 527.24687 219.071589 548.11544 216.450879 552.87154 220.624599 553.06566 220.818719 553.93923 220.430469 553.25979 216.645009 556.85112 214.412559 558.30707 204.512119 556.85112 203.832679 557.72469 198.785399 562.09253 197.911829 566.94569 194.417559 569.08108 188.302579 569.17818 185.196559 565.29566 181.508159 564.1309 179.178649 560.4425 176.849129 560.63663 176.363819 560.73373 175.878499"></polygon>
                    <polygon id="KS" stroke="#F8F8F8" stroke-width="1.970631" fill="#F5831F" points="508.12544 290.898219 505.69886 249.840519 501.33102 247.316879 500.94277 245.375609 497.44849 242.269589 500.8457 238.095879 499.48682 235.669299 496.96318 235.766399 494.63366 234.116319 493.66303 233.339819 490.36289 233.533939 454.5466 234.892829 438.14293 235.281079 405.52972 235.281079 392.4262 235.086949 388.7378 234.989849 388.7378 236.834049 388.6407 242.560769 387.573 293.907159 387.573 295.848429 391.74672 295.945529 414.26536 296.236719 466.97064 295.460209 504.53406 293.713079 508.22246 293.421889 508.12536 290.898249"></polygon>
                    <polygon id="MO" stroke="#F8F8F8" stroke-width="1.970631" fill="#0076BD" points="552.87154 220.624519 548.11544 216.450799 527.24687 219.071509 505.99005 220.915709 486.09211 221.498089 486.09211 221.498089 485.99501 222.080469 488.42158 226.739499 490.65404 228.292499 493.27474 232.951529 493.66299 233.339789 494.63362 234.116289 496.96314 235.766369 499.48678 235.669269 500.84566 238.095849 497.44845 242.269559 500.94273 245.375579 501.33098 247.316849 505.69882 249.840489 508.1254 290.898189 508.2225 293.421829 508.41663 295.945469 508.51373 298.469109 508.70786 301.089809 508.80496 303.613459 513.36693 303.322269 544.62125 300.798629 581.6023 297.207289 583.4465 300.992749 579.17572 307.787169 589.65854 306.234159 589.75564 306.234159 589.75564 305.457659 589.94977 300.992749 591.89103 298.566169 591.30865 295.848409 591.21155 295.751309 591.11445 295.654209 591.5027 294.392389 592.08508 294.586519 592.37627 295.363019 592.27917 295.654209 592.27917 295.751309 592.27917 296.527819 592.66743 296.624919 593.44393 295.654289 593.44393 295.557189 593.54103 295.265999 596.06467 293.712989 596.45293 293.518859 597.3265 285.559689 597.13237 285.171429 596.84118 285.074329 589.9497 279.444669 591.01739 277.406339 589.07613 271.873749 585.58186 269.155979 578.98157 266.244079 574.80785 262.846879 575.29317 255.858329 576.55499 249.355099 569.56644 249.743349 567.43105 247.510899 566.46042 243.045999 555.39523 233.727939 552.28921 225.089319 553.06571 220.818539 553.06571 220.818539 552.87159 220.624419"></polygon>
                    <polygon id="NE" stroke="#F8F8F8" stroke-width="1.970631" fill="#0076BD" points="471.53264 182.866959 468.52369 179.858009 457.94381 176.751989 454.5466 176.654889 449.40225 178.110829 443.28727 174.228309 424.16584 174.422429 396.30872 174.131239 363.40433 173.063549 360.49243 172.966449 360.39533 175.490089 360.00708 183.061009 359.13351 200.823559 358.64819 211.015189 358.55109 213.538829 360.88061 213.635929 384.56401 214.509499 389.22304 214.703629 388.83478 233.727999 388.73768 234.989819 392.42608 235.086919 405.5296 235.281049 438.14281 235.281049 454.54648 234.892799 490.36277 233.533909 493.66291 233.339789 493.27466 232.951529 490.65396 228.292499 488.4215 226.739499 485.99493 222.080469 486.09203 221.498089 486.09203 221.206899 483.08307 208.976939 483.66545 207.035679 480.36531 202.473719 480.17118 197.038179 477.16222 192.282089 474.0562 183.158149 473.37676 183.061049 471.53256 182.866919"></polygon>
                    <polygon id="OK" stroke="#F8F8F8" stroke-width="1.970631" fill="#0076BD" points="508.70782 301.089839 508.51369 298.469139 508.41659 295.945499 508.22246 293.421859 504.53406 293.713049 466.97064 295.460179 414.26536 296.236689 391.74672 295.945499 387.573 295.848399 386.01999 295.848399 379.90502 295.654269 377.96375 295.557169 373.8871 295.460069 371.94584 295.362969 371.84874 297.886609 371.75164 300.410249 371.65454 302.933889 371.55744 305.554599 372.13982 305.554599 395.62909 306.136979 420.47725 306.428169 420.76844 339.623749 422.51558 345.447539 426.3981 349.135939 430.57182 349.330069 431.44538 347.582929 437.17211 352.824339 444.64597 353.600839 446.00485 355.153849 448.72262 353.892029 455.51704 357.095119 455.51704 358.939309 458.04068 358.842209 460.66138 356.609759 465.51454 359.715779 470.07651 361.365849 473.18252 357.095079 483.08296 361.754099 486.77136 358.745149 489.78032 357.580389 492.2069 358.162769 501.33083 355.542069 506.18399 357.580389 510.55183 360.395219 514.33729 361.074659 514.43439 361.074659 514.33729 356.706819 513.26959 330.305649 513.17249 325.937809 509.38703 306.331059 508.80465 303.613299 508.70755 301.089649"></polygon>
                    <polygon id="SD" stroke="#F8F8F8" stroke-width="1.970631" fill="#F5831F" points="466.09711 113.758019 449.69344 114.243339 410.18875 114.534529 367.38391 113.369769 363.59845 113.175639 363.50135 115.408099 363.1131 124.240839 362.82191 130.938199 362.72481 132.297079 362.43362 132.297079 362.33652 134.820719 361.36589 155.203979 360.58939 170.345819 360.49229 172.966529 363.40419 173.063629 396.30858 174.131319 424.1657 174.422509 443.28713 174.228389 449.40211 178.110909 454.54646 176.654969 457.94367 176.752069 468.52355 179.858089 471.5325 182.867039 473.3767 183.061169 473.3767 182.381729 471.24131 179.178649 472.6002 174.034299 470.95012 163.260289 472.98845 163.163189 472.79432 158.698289 467.94117 124.532069 465.41753 120.261289 469.30005 113.855129 469.39715 113.563939 466.09701 113.758059"></polygon>
                    <path d="M588.20251,447.461029 L586.94069,447.752219 L586.35831,448.334599 L588.20251,447.461029 L588.20251,447.461029 Z M592.27916,447.461029 L591.59972,447.169839 L591.4056,447.461029 L592.27916,447.461029 Z M594.60868,446.684519 L593.92924,446.684519 L593.54098,447.169839 L594.60868,446.684519 Z M593.44392,446.005079 L593.24979,445.713889 L593.15269,446.005079 L593.44388,446.005079 L593.44392,446.005079 Z M601.20897,440.860739 L600.91778,441.054859 L601.4031,441.054859 L601.20897,440.860739 Z M614.79781,435.134009 L615.38019,434.357509 L614.70074,435.231079 L614.79784,435.133979 L614.79781,435.134009 Z M616.73907,432.610369 L616.54494,432.707469 L616.54494,432.804569 L616.73907,432.610439 L616.73907,432.610369 Z M566.84863,441.151929 L568.30457,439.307729 L564.32498,438.240029 L562.57785,439.695979 L566.84863,441.151929 L566.84863,441.151929 Z M607.12982,432.707439 L606.74157,432.319179 L606.64447,432.513309 L607.12979,432.707439 L607.12982,432.707439 Z M608.19751,430.960299 L607.22688,430.669109 L607.51807,431.639739 L608.19751,430.960299 L608.19751,430.960299 Z M616.15669,429.310229 L616.15669,429.019039 L616.15669,429.116139 L616.15669,429.310269 L616.15669,429.310229 Z M618.09795,428.048409 L618.00085,427.951309 L618.09795,428.145439 L618.09795,428.048339 L618.09795,428.048409 Z M617.32145,427.854279 L617.12732,427.757179 L617.03022,428.048369 L617.32141,427.854239 L617.32145,427.854279 Z M610.52703,427.563089 L611.4006,427.271899 L611.4006,426.980709 L610.52703,427.563089 L610.52703,427.563089 Z M611.01235,427.077769 L611.49766,426.592459 L611.40056,426.495359 L611.01231,427.077729 L611.01235,427.077769 Z M607.61514,423.486439 L607.42101,423.680569 L607.51811,423.680569 L607.61521,423.486439 L607.61514,423.486439 Z M571.79884,369.131059 L571.60472,369.131059 L535.01192,372.528299 L525.79093,373.207739 L522.78197,373.498929 L522.87907,375.828449 L524.82033,394.561629 L528.02342,399.026529 L528.12052,401.647239 L531.22654,407.082769 L533.75018,415.041949 L532.87661,419.506849 L532.19717,430.572049 L530.74123,434.163379 L530.93535,434.163379 L531.22654,436.687019 L529.57647,439.016539 L541.61229,437.657649 L551.02742,440.278359 L557.72477,441.151929 L561.12198,438.725349 L559.27778,436.298769 L565.48982,434.357509 L565.2957,436.492899 L568.49878,435.716389 L571.11948,439.793039 L573.35193,439.016539 L579.17572,442.996129 L575.58439,444.257949 L583.83475,446.684519 L586.94077,446.684519 L588.78497,444.452069 L592.76456,442.316679 L595.57939,446.393339 L597.52065,442.704939 L596.93827,436.881149 L602.17968,438.919479 L602.76206,440.666609 L608.9741,441.443119 L612.08012,443.966759 L611.69187,446.005079 L616.05971,441.928429 L614.40963,439.793039 L607.1299,437.948839 L604.41213,436.395829 L604.31503,433.483939 L607.32399,433.872189 L609.6535,429.116099 L606.64454,424.942389 L604.99447,428.921969 L601.20901,428.242529 L603.82971,423.971749 L602.08258,423.486439 L597.8118,426.495399 L591.69682,426.883649 L589.94969,425.524759 L592.76452,420.574549 L596.06466,420.477449 L601.69433,422.321649 L605.77098,422.709899 L605.77098,422.709899 L603.53853,419.895069 L599.26775,411.547649 L600.43251,406.888619 L566.94573,410.577009 L568.20755,409.315189 L566.84867,405.820919 L568.88699,402.811959 L570.05175,395.241039 L577.42855,382.622839 L573.83721,378.254999 L574.03134,375.051909 L571.79888,369.810499 L571.79888,369.131059 L571.79884,369.131059 Z" id="LA" stroke="#F8F8F8" stroke-width="1.970631" fill="#0076BD"></path>
                    <path d="M473.18271,515.114019 L468.52369,497.545599 L468.52369,500.845749 L473.18271,515.114019 L473.18271,515.114019 Z M472.11502,484.247949 L468.81487,490.459989 L468.42662,492.498319 L472.11502,484.247949 L472.11502,484.247949 Z M474.73572,479.685989 L477.84174,475.609329 L475.60929,476.968219 L474.73572,479.685989 L474.73572,479.685989 Z M485.70386,469.785549 L478.42412,473.571009 L480.46245,473.182759 L485.70386,469.785549 Z M486.67449,468.426659 L488.71281,466.776589 L487.93631,466.970719 L486.67449,468.426659 L486.67449,468.426659 Z M371.55763,305.554749 L370.87819,305.457649 L367.57804,396.502849 L348.35954,395.629279 L317.59053,393.882149 L305.26352,393.008579 L307.6901,397.764669 L307.7872,397.861769 L318.27002,408.344579 L324.28793,415.430189 L332.2471,421.351039 L337.87677,431.639729 L340.01215,442.413739 L344.57412,445.422689 L348.16546,449.402279 L353.3098,451.246479 L360.78366,456.002569 L364.18087,457.264399 L368.8399,452.605369 L370.29585,447.655149 L372.72243,442.899049 L380.29335,439.890099 L383.20524,441.346039 L391.64973,442.025489 L399.31772,446.781579 L404.55913,447.752209 L403.10318,450.469979 L406.11214,452.411239 L408.92697,455.808449 L409.50935,459.399779 L411.35355,461.826359 L415.62432,472.115049 L419.8951,475.706389 L423.19525,481.141919 L427.36896,485.412699 L429.21316,485.995079 L430.76617,497.060269 L435.32814,499.583919 L435.52226,503.078189 L436.68702,502.786999 L444.6462,512.493309 L448.62579,513.366879 L453.67307,516.375839 L461.43812,516.375839 L467.06778,519.481849 L473.76513,518.025909 L470.75618,515.211079 L468.03841,507.057779 L466.97072,499.972169 L465.41771,497.642649 L466.09715,492.886559 L464.05882,492.692429 L461.34105,488.227529 L464.44707,491.527679 L468.03841,490.265859 L469.97967,485.121509 L466.09715,479.880099 L471.92093,480.559539 L474.6387,476.385829 L474.25045,474.929879 L476.67703,471.726799 L476.09465,474.541629 L478.81242,472.406239 L477.74472,468.620779 L481.23899,470.464979 L485.7039,467.941339 L481.33606,463.379369 L484.05382,464.447069 L489.10111,464.738259 L495.7014,463.282309 L503.0782,458.332089 L507.5431,454.643689 L508.22254,451.925919 L510.94031,449.111089 L509.48436,444.452059 L509.77555,441.540169 L514.62871,439.404779 L514.24045,444.549129 L517.15235,444.549129 L513.94927,447.266889 L526.85866,440.472479 L528.99405,440.375379 L530.35293,434.163339 L530.74119,434.163339 L532.19713,430.572009 L532.87657,419.506809 L533.75014,415.041909 L531.2265,407.082729 L528.12048,401.647199 L528.02338,399.026489 L524.82029,394.561589 L522.87903,375.828409 L522.78193,373.498889 L522.5878,371.072309 L522.00542,362.530759 L516.18164,362.724889 L514.72569,361.171879 L514.4345,361.074779 L514.3374,361.074779 L510.55194,360.395339 L506.1841,357.580509 L501.33094,355.542189 L492.20701,358.162889 L489.78043,357.580509 L486.77147,358.745269 L483.08307,361.754219 L473.18263,357.095199 L470.07662,361.365969 L465.51465,359.715899 L460.66149,356.609879 L458.04079,358.842329 L455.51715,358.939429 L455.51715,357.095239 L448.72273,353.892149 L446.00496,355.153969 L444.64608,353.600959 L437.17222,352.824459 L431.44549,347.583049 L430.57193,349.330189 L426.39821,349.136059 L422.51569,345.447659 L420.76855,339.623869 L420.47736,306.428289 L395.6292,306.137099 L372.13993,305.554719 L371.55755,305.554719 L371.55763,305.554749 Z" id="TX" stroke="#F8F8F8" stroke-width="1.970631" fill="#0076BD"></path>
                    <polygon id="CT" stroke="#F8F8F8" stroke-width="1.970631" fill="#0076BD" points="836.19878 121.523069 822.22169 126.861539 822.02757 126.376229 814.16546 128.705739 812.41832 129.191059 812.61245 130.161689 816.30084 144.429969 817.4656 145.885919 814.94196 148.991939 816.6891 150.642009 816.6891 150.642009 822.31876 145.206469 825.32771 141.032759 825.91009 142.197519 840.08131 135.888409 840.3725 135.597229 840.2754 133.267709 839.69303 131.229379 836.68407 122.784889 836.29582 121.717199 836.19872 121.523069"></polygon>
                    <polygon id="NH" stroke="#F8F8F8" stroke-width="1.970631" fill="#F5831F" points="823.09526 54.161267 821.83344 55.714277 820.3775 55.423087 819.60099 61.829253 819.60099 61.926313 821.93051 70.661994 821.73638 72.40913 817.56266 77.941728 818.63036 82.989009 818.63036 89.298119 817.85385 95.121899 822.22169 111.040259 822.22169 111.040259 822.22169 111.040259 826.20128 109.778439 838.43124 105.701779 843.96383 99.683869 843.96383 99.683869 843.96383 98.130859 844.25502 95.607219 843.57558 95.898409 843.47848 95.316029 837.3635 87.842169 837.16937 87.162729 823.09522 54.161264 823.09522 54.161264"></polygon>
                    <path d="M845.71097,130.258749 L845.61387,128.220429 L845.32268,128.996929 L845.71093,130.258749 L845.71097,130.258749 Z M847.65223,128.705739 L846.39041,126.279169 L846.29331,128.802809 L847.65219,128.705709 L847.65223,128.705739 Z M847.06985,125.696789 L847.74929,127.443919 L848.62286,128.996929 L849.20524,127.832179 L848.33167,126.182099 L848.04048,125.017349 L847.06985,125.017349 L847.06985,125.696789 L847.06985,125.696789 Z M836.29585,121.717199 L836.6841,122.784889 L839.69306,131.229379 L840.27543,133.267709 L840.37253,135.597229 L840.56665,135.306039 L845.22568,131.617639 L844.35212,125.017349 L846.29338,124.629089 L846.29338,124.629089 L842.0226,119.484749 L837.5577,121.231879 L836.29585,121.717199 L836.29585,121.717199 Z" id="RI" stroke="#F8F8F8" stroke-width="1.970631" fill="#0076BD"></path>
                    <polygon id="VT" stroke="#F8F8F8" stroke-width="1.970631" fill="#0076BD" points="822.22169 111.040259 817.85385 95.121899 818.63036 89.298119 818.63036 82.989009 817.56266 77.941731 821.73638 72.409133 821.93051 70.661997 819.60099 61.926316 818.33917 62.411632 813.0007 64.352894 807.75929 66.39122 795.72346 70.75906 795.04402 70.953186 799.41186 81.144819 800.86781 90.754059 806.01215 98.810299 810.86531 114.728649 811.05944 114.631549 811.83594 114.340359 814.06839 113.660919 816.00965 112.981479 821.54225 111.331409 822.22169 111.040219 822.22169 111.040219"></polygon>
                    <polygon id="AL" stroke="#F8F8F8" stroke-width="1.970631" fill="#F5831F" points="617.51557 323.026109 617.90383 323.802619 619.26271 324.676179 619.84509 364.472059 620.03922 386.311259 624.98943 416.206709 625.37769 416.109609 629.74553 416.983179 630.91028 408.344559 632.85155 413.197719 636.15169 416.206679 642.4608 412.518279 641.78135 411.935899 641.97548 412.032999 637.60764 402.035499 679.53891 395.241079 682.35374 394.755769 682.35374 394.658669 679.73303 389.708449 679.53891 382.622849 677.40352 378.740319 678.47121 371.169399 680.21835 369.228139 673.03568 356.415799 660.02922 316.814049 659.93212 316.619919 657.02022 317.105239 641.49012 319.628879 633.72508 320.599509 617.41847 322.831959 617.51557 323.026089"></polygon>
                    <path d="M753.88926,513.463949 L753.69513,513.463949 L753.79223,513.561049 L753.88933,513.463949 L753.88926,513.463949 Z M766.5075,508.707809 L766.4104,508.707809 L766.5075,508.901929 L766.5075,508.707809 Z M769.12821,508.028369 L769.12821,507.834239 L768.93408,508.125429 L769.12821,508.028329 L769.12821,508.028369 Z M768.15758,507.834239 L767.76932,507.445989 L767.67222,507.543089 L768.15754,507.834279 L768.15758,507.834239 Z M767.86639,508.610749 L766.70163,507.154799 L767.38107,508.416619 L767.86639,508.610749 L767.86639,508.610749 Z M777.08738,502.884019 L777.08738,503.272269 L777.28151,503.078144 L777.08738,502.884019 Z M778.44627,501.913389 L778.73746,501.428069 L778.3492,501.816329 L778.4463,501.913429 L778.44627,501.913389 Z M777.86389,499.195619 L777.76679,499.098519 L777.76679,499.292649 L777.86389,499.195549 L777.86389,499.195619 Z M778.54333,496.866069 L778.3492,496.963169 L778.64039,497.060269 L778.54329,496.866149 L778.54333,496.866069 Z M778.93158,496.866069 L778.73746,496.671939 L778.83456,496.963129 L778.93166,496.866029 L778.93158,496.866069 Z M778.25214,496.671939 L778.15504,496.574839 L778.15504,496.768959 L778.25214,496.671859 L778.25214,496.671939 Z M781.84348,495.992499 L781.84348,495.895399 L781.64935,496.283649 L781.84348,495.992459 L781.84348,495.992499 Z M777.76683,496.380749 L777.5727,496.380749 L777.76683,496.477849 L777.76683,496.380749 Z M779.80515,495.215989 L779.51396,495.215989 L779.41686,495.313089 L779.80511,495.215989 L779.80515,495.215989 Z M772.42835,495.118929 L772.42835,494.924809 L772.33125,495.118929 L772.42835,495.118929 Z M773.30192,494.827739 L773.01073,494.827739 L773.30192,495.410119 L773.30192,494.827739 Z M770.97241,494.924839 L770.97241,494.342459 L770.48709,494.439559 L770.97241,494.924879 L770.97241,494.924839 Z M769.61352,493.954199 L770.09884,494.439519 L770.09884,494.245389 L769.61352,493.954199 Z M783.8818,494.536579 L782.13467,495.313089 L782.71704,495.410189 L783.8818,494.536619 L783.8818,494.536579 Z M770.29297,493.663019 L769.71059,493.663019 L769.71059,493.857139 L770.29297,493.663019 Z M785.62894,488.809859 L785.72604,488.324539 L785.82314,487.062719 L785.62902,488.809859 L785.62894,488.809859 Z M785.72604,483.374319 L785.33779,482.403689 L785.14366,482.791949 L785.72604,483.374319 Z M763.30446,485.800899 L763.11033,486.092089 L763.59565,486.189189 L763.30446,485.800939 L763.30446,485.800899 Z M761.46026,484.927329 L760.58669,485.218519 L761.26614,485.315619 L761.46026,484.927359 L761.46026,484.927329 Z M759.519,485.121459 L759.519,484.830269 L759.4219,484.927369 L759.519,485.121499 L759.519,485.121459 Z M757.48067,485.024359 L756.89829,485.412609 L757.6748,485.800859 L757.48067,485.024359 L757.48067,485.024359 Z M760.19844,485.121459 L760.10134,484.830269 L759.61602,484.733169 L760.1984,485.121419 L760.19844,485.121459 Z M747.48317,475.609269 L746.90079,475.900459 L748.06555,476.288719 L747.48317,475.609269 L747.48317,475.609269 Z M745.15366,472.503249 L744.37715,471.338499 L744.66834,472.212069 L745.15366,472.503249 L745.15366,472.503249 Z M748.16261,474.444519 L746.80373,471.338499 L745.8331,471.047309 L748.16261,474.444519 Z M744.28009,470.561989 L743.9889,469.785489 L743.79477,469.300169 L744.28009,470.561989 Z M736.22385,459.787989 L734.47671,458.526169 L735.15616,459.205609 L736.22385,459.787989 Z M779.90225,453.284759 L772.81665,441.443059 L772.42839,441.443059 L779.90225,453.284759 Z M730.88538,434.357449 L730.59419,434.260349 L730.88538,434.454469 L730.88538,434.357369 L730.88538,434.357449 Z M730.303,433.678009 L730.2059,433.775109 L730.303,433.872209 L730.303,433.678089 L730.303,433.678009 Z M730.01181,432.319119 L730.303,432.513249 L730.303,432.319119 L730.01181,432.319119 Z M730.59419,431.930869 L730.20594,432.027969 L730.30304,432.027969 L730.59423,431.930869 L730.59419,431.930869 Z M729.91475,431.833769 L729.62356,431.542579 L729.72066,431.639679 L729.91479,431.833809 L729.91475,431.833769 Z M729.23531,430.766069 L729.04118,430.766069 L729.33237,430.863169 L729.23527,430.766069 L729.23531,430.766069 Z M729.91475,429.601319 L729.52649,429.601319 L729.42939,429.698419 L729.91471,429.601319 L729.91475,429.601319 Z M730.303,429.795439 L729.81768,429.310129 L730.01181,429.407229 L730.303,429.795479 L730.303,429.795439 Z M726.6146,425.621729 L726.42047,425.524629 L726.42047,425.621729 L726.6146,425.621729 Z M722.44089,425.621729 L722.1497,425.233479 L722.2468,425.718789 L722.44093,425.621689 L722.44089,425.621729 Z M687.10991,422.418639 L690.0218,420.186189 L686.81872,422.321579 L687.10991,422.418679 L687.10991,422.418639 Z M692.9337,417.759619 L693.22489,417.468429 L692.06013,417.953739 L692.9337,417.759619 L692.9337,417.759619 Z M656.04971,411.256389 L645.46983,414.653599 L651.29362,413.003519 L656.04971,411.256389 L656.04971,411.256389 Z M682.35382,394.755659 L679.53899,395.240969 L637.60772,402.035389 L641.97556,412.032889 L642.26675,412.129989 L641.19906,416.109579 L644.30508,414.750699 L647.70228,411.741739 L653.52607,411.547619 L660.22343,409.121039 L664.78539,409.800479 L663.7177,411.450549 L672.06513,414.265379 L679.2478,417.759659 L680.89787,421.642179 L686.23634,420.477419 L698.85455,410.188729 L703.51358,410.382859 L722.53795,424.748199 L726.42047,423.971689 L730.49713,429.407229 L731.27363,438.045849 L730.01181,443.481379 L730.59419,446.199149 L733.9914,452.993569 L732.43839,447.655099 L736.80623,447.557999 L737.19448,451.440529 L734.86497,457.458439 L742.92121,468.523639 L745.93016,468.620739 L743.40652,465.223529 L746.51254,465.611779 L748.35674,464.447029 L747.58024,470.659069 L751.75395,473.959209 L754.56878,481.530139 L758.35424,483.859649 L763.2074,485.121469 L769.90475,493.663029 L773.39903,495.507219 L768.74,495.798409 L770.87538,498.224989 L778.54337,495.701349 L782.32883,493.565959 L785.8231,481.336009 L784.07597,462.311639 L783.68772,460.370369 L774.36966,444.840279 L766.41048,433.580949 L761.94558,424.359959 L765.73104,427.563039 L766.50754,426.980659 L768.15762,435.036899 L772.42839,441.151879 L768.25468,432.998579 L768.44881,429.116049 L755.92766,413.877139 L752.91871,409.121049 L748.93912,401.064809 L746.22135,394.270389 L744.08596,391.843809 L743.60065,388.737789 L743.50355,388.640689 L736.8062,388.252439 L734.18549,390.290759 L732.72955,397.764619 L731.37066,394.270349 L685.55687,399.997069 L682.25673,394.852729 L682.35383,394.755629 L682.35382,394.755659 Z" id="FL" stroke="#F8F8F8" stroke-width="1.970631" fill="#F5831F"></path>
                    <path d="M745.05651,374.275439 L744.95941,371.363539 L744.27997,373.887179 L745.05647,374.275439 L745.05651,374.275439 Z M746.12421,369.810529 L745.73596,367.578079 L745.44477,368.936969 L746.12421,369.810529 L746.12421,369.810529 Z M700.69867,308.660769 L699.43685,308.951959 L695.74845,309.728459 L682.15961,312.543289 L680.89779,312.834479 L679.53891,313.028609 L671.96798,314.484559 L669.92966,314.872809 L661.67929,316.425819 L659.93216,316.619939 L660.02926,316.814069 L673.03572,356.415819 L680.21839,369.228159 L678.47125,371.169419 L677.40356,378.740339 L679.53895,382.622869 L679.73307,389.708469 L682.35378,394.658689 L682.35378,394.755789 L682.25668,394.852889 L685.55682,399.997229 L731.37061,394.270509 L732.7295,397.764779 L734.18544,390.290919 L736.80615,388.252599 L743.5035,388.640849 L743.5035,388.640849 L742.92113,378.158029 L744.18295,375.925579 L743.5035,371.751869 L744.86239,367.772279 L746.90071,365.539829 L745.44477,364.180939 L748.84198,360.007229 L748.74488,360.007229 L742.9211,354.571689 L734.96192,343.215309 L730.59408,341.176979 L711.8609,325.452759 L707.29893,319.628969 L698.46619,315.940569 L697.98087,313.999309 L700.69864,308.660769 L700.69864,308.660769 L700.69867,308.660769 Z" id="GA" stroke="#F8F8F8" stroke-width="1.970631" fill="#0076BD"></path>
                    <path d="M615.96256,420.962799 L615.47725,421.059899 L615.47725,421.156999 L615.96256,420.962879 L615.96256,420.962799 Z M624.98943,419.798039 L623.63055,419.798039 L624.89237,419.895139 L624.98947,419.798039 L624.98943,419.798039 Z M613.73011,420.768669 L613.34186,421.156919 L613.43896,421.254019 L613.73015,420.768699 L613.73011,420.768669 Z M622.85405,419.992169 L619.16565,419.992169 L622.65992,420.089269 L622.85405,419.992169 Z M582.37872,327.491009 L582.37872,327.588109 L578.30207,334.382529 L578.69033,339.623929 L573.15773,345.738909 L574.61368,347.486049 L570.92528,363.016149 L572.67241,366.316289 L571.70178,366.995729 L571.79888,369.131119 L571.79888,369.810559 L574.03134,375.051969 L573.83721,378.255059 L577.42855,382.622899 L570.05175,395.241099 L568.88699,402.812019 L566.84867,405.820979 L568.20755,409.315249 L566.94573,410.577069 L600.43251,406.888679 L599.26775,411.547709 L603.53853,419.895129 L605.77098,422.709959 L605.77098,422.612859 L609.36231,418.536209 L616.93324,416.886139 L623.92178,417.662639 L624.98947,416.303759 L624.98947,416.206659 L620.03926,386.311209 L619.84513,364.472009 L619.26275,324.676129 L617.90387,323.802569 L617.51561,323.026059 L617.32149,323.026059 L612.46833,323.705499 L603.92678,324.870259 L584.51415,327.296839 L582.37876,327.490959 L582.37872,327.491009 Z" id="MS" stroke="#F8F8F8" stroke-width="1.970631" fill="#0076BD"></path>
                    <polygon id="SC" stroke="#F8F8F8" stroke-width="1.970631" fill="#0076BD" points="700.69867 308.660769 700.69867 308.660769 697.9809 313.999239 698.46622 315.940499 707.29896 319.628899 711.86093 325.452689 730.59411 341.176909 734.96195 343.215239 742.92113 354.571619 748.74491 360.007159 748.74491 360.007159 749.71554 355.542259 748.16253 351.271479 752.33625 354.377499 754.66576 352.533299 750.68617 349.233149 755.53933 348.941959 763.11025 342.535799 762.23669 340.885719 766.89572 337.294389 766.4104 335.547249 769.80761 333.411859 770.00174 328.461639 775.34021 318.561209 778.93154 313.999239 779.3198 313.805109 757.67472 300.119209 749.61848 301.672219 738.65035 301.283969 733.21481 298.469139 700.98986 308.660769 700.69867 308.660769"></polygon>
                    <polygon id="IL" stroke="#F8F8F8" stroke-width="1.970631" fill="#0076BD" points="560.63659 176.363739 560.44246 176.849049 564.13086 179.178569 565.29562 181.508079 569.17814 185.196479 569.08104 188.302499 566.94565 194.417479 562.09249 197.911749 557.72465 198.785319 556.85108 203.832599 558.30703 204.512039 556.85108 214.412479 553.25975 216.644929 553.93919 220.430389 553.06562 220.818639 553.06562 220.818639 552.28912 225.089419 555.39514 233.728039 566.46033 243.046099 567.43096 247.510999 569.56635 249.743449 576.5549 249.355199 575.29308 255.858429 574.80776 262.846979 578.98148 266.244179 585.58177 269.156079 589.07604 271.873849 591.0173 277.406439 589.94961 279.444769 596.84109 285.074429 597.13228 285.171529 596.5499 284.589149 598.49116 280.027189 605.96502 282.065509 607.80922 279.930119 606.35328 275.659349 612.46825 272.068009 610.81818 269.738499 612.27413 266.438349 612.27413 266.147159 611.88587 266.050059 611.98297 257.411439 614.11836 255.858429 617.80675 247.219809 617.03025 243.434349 614.60367 238.872389 615.96255 233.728039 609.16814 185.875919 608.1975 184.808229 605.67386 179.081499 603.63554 176.946109 602.76197 171.316449 602.76197 171.122329 589.65845 172.966529 581.79634 173.937159 560.63658 176.363739 560.63658 176.363739"></polygon>
                    <polygon id="IN" stroke="#F8F8F8" stroke-width="1.970631" fill="#0076BD" points="649.5464 178.402059 634.69575 181.022769 631.29854 181.702209 619.26271 183.643469 616.73907 185.681799 612.95361 187.428929 611.49766 187.331829 609.75052 186.458259 609.16815 185.875879 615.96256 233.727999 614.60368 238.872349 617.03026 243.434309 617.80676 247.219769 614.11837 255.858389 611.98298 257.411399 611.88588 266.050019 612.27414 266.147119 612.66239 266.050019 614.11834 263.332249 617.70967 263.332249 622.07751 261.876299 627.51305 263.914629 628.09542 261.682179 631.20144 259.352659 635.86047 260.032109 638.38412 255.081889 645.2756 255.664259 645.1785 252.849429 651.29348 244.793199 650.32285 241.104799 654.59363 241.007699 659.83503 236.833989 658.57321 232.077899 658.76734 231.883769 658.57321 230.233699 652.74943 195.873349 650.12872 181.216819 649.83753 179.663809 649.54634 178.401989"></polygon>
                    <path d="M592.37623,295.363119 L592.08504,294.586619 L591.50266,294.392489 L591.11441,295.654309 L591.21151,295.751409 L592.2792,295.654309 L592.3763,295.363119 L592.37623,295.363119 Z M658.7674,231.883839 L658.57327,232.077969 L659.83509,236.834059 L654.59369,241.007769 L650.32291,241.104869 L651.29354,244.793269 L645.17856,252.849499 L645.27566,255.664329 L638.38418,255.081959 L635.86053,260.032179 L631.2015,259.352729 L628.09548,261.682249 L627.51311,263.914699 L622.07757,261.876369 L617.70973,263.332319 L614.1184,263.332319 L612.66245,266.050089 L612.2742,266.147189 L612.2742,266.438379 L610.81825,269.738529 L612.46832,272.068039 L606.35335,275.659379 L607.80929,279.930149 L605.96509,282.065539 L598.49123,280.027219 L596.54997,284.589179 L597.13235,285.171559 L597.32648,285.559819 L596.45291,293.518989 L596.06465,293.713119 L593.54101,295.266129 L593.44391,295.557319 L596.25874,295.169059 L615.86549,292.548359 L614.89486,288.665839 L618.19501,288.568739 L657.6997,283.327329 L685.45975,278.668299 L685.848,278.377109 L686.52744,277.600609 L693.80718,273.718089 L699.43684,266.341289 L700.21334,263.817649 L703.90174,260.905749 L708.56077,254.984899 L709.24021,254.014269 L708.94902,253.917169 L706.52245,253.917169 L703.41643,252.170029 L697.88383,245.472679 L695.94257,238.678259 L695.94257,238.484129 L695.74844,238.290009 L691.67179,235.960489 L689.82759,232.854469 L686.13919,236.445809 L683.80968,237.028189 L680.89778,235.863429 L678.37414,237.804689 L673.13273,235.475179 L671.77385,236.057549 L666.82363,231.786779 L664.29999,230.524959 L659.5439,231.107339 L658.76739,231.883839 L658.7674,231.883839 Z" id="KY" stroke="#F8F8F8" stroke-width="1.970631" fill="#F5831F"></path>
                    <path d="M789.41436,310.407899 L788.34667,311.475599 L788.54079,311.669729 L789.41436,310.407899 Z M790.19086,304.778239 L789.70555,305.554749 L789.89968,306.331249 L790.19086,304.778239 Z M796.01465,295.751369 L794.55871,296.721999 L793.7822,297.886759 L796.01465,295.751369 L796.01465,295.751369 Z M808.53579,289.636399 L807.95342,289.248139 L806.6916,289.151039 L808.53579,289.636359 L808.53579,289.636399 Z M805.91509,289.054019 L805.04152,289.054019 L803.58558,289.830519 L805.91509,289.054019 Z M808.92405,290.121709 L811.73888,283.133169 L809.79762,286.045059 L808.92405,290.121709 Z M813.09776,280.900719 L814.35958,279.056519 L813.68014,279.056519 L813.09776,280.900719 Z M821.25106,273.329789 L819.11567,262.555789 L820.95987,268.185449 L821.25106,273.329789 Z M809.40936,248.772819 L809.21524,248.869919 L808.92405,248.967019 L808.92405,248.967019 L809.02115,248.967019 L814.35962,257.993889 L818.53334,262.167599 L809.4094,248.772819 L809.4094,248.772819 L809.40936,248.772819 Z M807.66223,249.355199 L806.88572,249.549329 L806.88572,249.549329 L807.07985,249.646429 L808.72992,249.646429 L808.53579,249.064049 L808.53579,249.064049 L808.24461,249.161149 L807.95342,249.161149 L807.95342,249.161149 L807.95342,249.355269 L807.75929,249.452369 L807.66219,249.355269 L807.66219,249.355269 L807.66223,249.355199 Z M717.87884,271.485589 L717.39352,272.941539 L717.49062,277.115249 L716.42292,277.018149 L713.89928,282.162499 L711.08445,282.453689 L705.84304,287.598029 L703.51353,286.724459 L700.50457,291.189369 L692.5454,298.372039 L688.66287,299.342669 L684.58622,303.128129 L684.39209,305.651769 L680.80076,307.593029 L680.89786,311.863809 L680.89786,312.834439 L682.15968,312.543249 L695.74852,309.728419 L699.43692,308.951919 L700.69874,308.660729 L700.98993,308.660729 L733.21488,298.469099 L738.65042,301.283929 L749.61855,301.672179 L757.67479,300.119169 L779.31987,313.805069 L779.70812,313.513879 L789.70562,309.437229 L789.80272,304.098759 L793.39406,297.595529 L797.27658,293.907129 L805.33282,288.568659 L806.40052,286.627399 L808.5359,287.598029 L809.50654,281.191869 L808.34178,283.424319 L804.26513,284.783199 L800.3826,284.880299 L805.1387,281.386029 L803.68275,279.833019 L805.33282,276.338749 L796.20889,274.882799 L795.82064,274.397489 L803.58569,272.941539 L806.10933,274.203359 L809.31241,273.912169 L811.93311,271.970909 L813.87438,268.185449 L815.62151,267.700129 L815.33032,262.361659 L813.09787,260.226269 L810.86542,262.264599 L811.35073,267.408939 L809.70066,261.099839 L808.43884,260.808649 L798.82959,264.788239 L803.10037,260.614519 L803.2945,258.964449 L807.7594,257.896759 L809.02122,254.596609 L812.03018,256.343749 L808.82709,251.587649 L806.59464,249.646389 L806.59464,249.646389 L767.76939,260.711589 L743.0183,267.020689 L717.97601,271.679719 L717.87891,271.485589 L717.87884,271.485589 Z" id="NC" stroke="#F8F8F8" stroke-width="1.970631" fill="#F5831F"></path>
                    <polygon id="OH" stroke="#F8F8F8" stroke-width="1.970631" fill="#F5831F" points="717.39352 184.808229 714.96695 174.325409 714.48163 172.190019 711.76386 160.251259 708.26959 162.483709 700.79573 168.210429 695.94258 174.131279 692.15711 174.713659 685.16857 178.693249 681.28604 176.363739 669.54141 175.004849 669.54141 175.004849 663.32937 176.557859 657.21439 178.013809 650.80822 179.372689 649.83759 179.663879 650.12878 181.216889 652.74949 195.873419 658.57327 230.233769 658.7674 231.883839 659.54391 231.107339 664.3 230.524959 666.82364 231.786779 671.77386 236.057549 673.13274 235.475179 678.37415 237.804689 680.89779 235.863429 683.80969 237.028189 686.1392 236.445809 689.8276 232.854469 691.6718 235.960489 695.74845 238.290009 695.94258 238.484129 695.94258 238.484129 700.11629 236.445809 701.57224 233.242719 700.40748 229.942579 703.70762 224.895299 706.1342 224.507039 705.84301 220.236269 709.8226 214.800729 710.50204 215.577239 714.09338 212.859469 717.1994 208.200439 717.68471 186.943619 717.87884 186.846519 717.39352 184.808199"></polygon>
                    <polygon id="TN" stroke="#F8F8F8" stroke-width="1.970631" fill="#0076BD" points="685.45976 278.668259 657.69971 283.327289 618.19502 288.568699 614.89487 288.665799 615.8655 292.548319 596.25875 295.169019 593.44392 295.557279 593.44392 295.654379 592.66742 296.625009 592.27916 296.527909 592.27916 295.751399 592.27916 295.654299 591.21147 295.751399 591.30857 295.848499 591.89095 298.566259 589.94969 300.992839 589.75556 305.457749 589.75556 306.234249 589.75556 306.331349 586.84367 311.961009 587.42605 315.940599 584.70828 320.211379 585.67891 324.093899 582.18464 327.296989 582.37876 327.491109 584.51415 327.296989 603.92678 324.870409 612.46833 323.705649 617.32149 323.026209 617.51561 323.026209 617.41851 322.832079 633.72512 320.599629 641.49016 319.628999 657.02026 317.105359 659.93216 316.620039 661.67929 316.425919 669.92966 314.872909 671.96798 314.484659 679.53891 313.028709 680.89779 312.834579 680.89779 311.863949 680.80069 307.593169 684.39202 305.651909 684.58615 303.128269 688.6628 299.342809 692.54533 298.372179 700.5045 291.189509 703.51346 286.724599 705.84297 287.598169 711.08438 282.453829 713.89921 282.162639 716.42285 277.018289 717.49055 277.115389 717.39345 272.941679 717.87877 271.485729 716.32576 271.776919 710.79316 273.329929 704.19287 274.688819 687.59508 278.086029 685.84794 278.377209 685.45969 278.668399"></polygon>
                    <path d="M807.95342,249.161079 L808.244605,249.161079 L808.53579,249.063979 L808.53579,249.063979 L808.34167,248.578669 L807.95342,249.161049 L807.95342,249.161049 L807.95342,249.161079 Z M804.65327,238.290009 L804.65327,238.775319 L805.13859,238.484129 L804.65327,238.290009 L804.65327,238.290009 Z M806.40041,234.892799 L806.30331,234.116289 L806.30331,234.116289 L806.40041,234.892799 Z M805.81803,236.057549 L805.6239,237.319379 L805.33271,237.804689 L805.81803,236.057549 Z M806.6916,233.533909 L806.7887,232.951529 L806.59457,233.533909 L806.69167,233.533909 L806.6916,233.533909 Z M807.27397,230.913209 L807.56516,230.233769 L807.07985,231.980899 L807.27397,230.913209 Z M807.37107,229.457259 L807.75932,227.321869 L807.274,227.807189 L807.3711,229.457259 L807.37107,229.457259 Z M809.1182,219.848009 L809.31233,218.974449 L809.21523,219.168569 L809.11813,219.848009 L809.1182,219.848009 Z M808.72995,217.615549 L807.46813,218.100879 L805.52687,218.974449 L804.84743,219.848009 L805.13862,219.945109 L802.8091,234.407509 L803.68267,236.737029 L805.04155,230.719109 L807.56519,222.856999 L808.72995,217.712649 L808.72995,217.615549 L808.72995,217.615549 Z M810.67121,216.839059 L810.38002,216.936159 L810.28292,217.324409 L809.79761,220.333369 L810.18586,219.265669 L810.67117,216.839099 L810.67121,216.839059 Z M709.24025,254.014229 L708.56081,254.984859 L703.90178,260.905709 L700.21338,263.817609 L699.43688,266.341249 L693.80722,273.718049 L686.52748,277.600569 L685.84804,278.377069 L687.59518,278.085889 L704.19297,274.688679 L710.79326,273.329789 L716.32586,271.776779 L717.87887,271.485589 L717.97597,271.679719 L743.01826,267.020689 L767.76935,260.711589 L806.5946,249.646389 L806.5946,249.646389 L806.30341,249.161079 L806.20631,248.869889 L806.88575,249.549329 L806.88575,249.549329 L806.88575,249.549329 L807.66226,249.355199 L807.56516,249.258099 L806.88572,245.957949 L807.37104,246.055049 L808.92405,248.966939 L808.92405,248.966939 L808.92405,248.966939 L809.21524,248.869839 L809.40936,248.772739 L809.02111,247.996239 L805.04152,241.881259 L800.0913,242.754829 L797.85885,244.599029 L795.72346,242.657769 L788.44373,240.231189 L783.39645,240.037059 L793.19982,239.163489 L798.63536,242.851889 L800.18837,240.425309 L795.82053,234.892719 L798.92655,235.086839 L797.27647,230.621939 L793.39395,230.816069 L784.17295,223.342209 L783.00819,223.342209 L796.01465,229.748369 L795.14108,225.283469 L796.01465,223.827519 L789.41436,221.303879 L783.68764,220.915629 L780.87281,218.391989 L778.54329,219.847929 L777.66972,213.150579 L778.64035,213.344699 L778.44623,207.909169 L778.2521,207.715039 L778.05797,207.812139 L777.86385,207.715039 L777.37853,207.326789 L777.08734,207.035599 L773.98132,205.676719 L770.77824,203.347199 L766.31334,202.182449 L766.02215,202.085349 L766.02215,202.182449 L765.43977,206.259099 L756.4129,202.376569 L756.60703,208.006229 L751.65681,217.421359 L748.64785,220.721499 L746.70659,226.448229 L740.78574,224.409899 L737.87384,237.610479 L735.54433,242.075389 L735.15608,247.899179 L733.40894,250.714009 L726.90571,252.655269 L721.56724,256.828979 L719.0436,257.217229 L716.61702,259.352619 L710.50204,257.120169 L709.43435,254.111209 L709.24022,254.014109 L709.24025,254.014229 Z" id="VA" stroke="#F8F8F8" stroke-width="1.970631" fill="#0076BD"></path>
                    <path d="M604.99443,112.981519 L602.56785,115.990479 L601.11191,120.358319 L601.79135,122.784889 L604.99443,112.981519 Z M549.2802,90.171689 L550.73615,88.133359 L549.66845,89.103989 L549.2802,90.171689 L549.2802,90.171689 Z M551.51265,86.968599 L551.02734,86.386219 L549.95964,87.065669 L551.51265,86.968569 L551.51265,86.968599 Z M530.35289,92.404139 L528.12044,94.927779 L529.18814,106.575349 L522.9761,112.205009 L521.81134,117.640549 L525.20855,120.746569 L524.23792,134.141279 L527.82925,136.859049 L530.15877,137.053169 L537.53556,141.518079 L542.19459,146.371229 L548.11544,149.380189 L549.47433,156.854049 L549.47433,157.339359 L549.47433,157.339359 L552.28916,160.736569 L551.51265,163.357279 L552.48328,169.083999 L555.39518,173.063589 L560.73365,175.878419 L560.63655,176.363739 L560.63655,176.363739 L581.79631,173.937159 L589.65842,172.966529 L602.76194,171.122329 L602.37369,169.666379 L602.37369,165.104409 L599.75298,160.251259 L599.07354,154.136279 L600.33536,147.341859 L599.65592,142.100449 L601.98544,135.597229 L601.11187,134.529529 L601.30599,128.511619 L602.56781,123.949649 L601.11187,122.396639 L598.29704,123.367269 L596.74403,127.443919 L593.05563,129.579309 L594.22039,124.434969 L597.52053,120.067129 L597.71466,118.125859 L597.81176,118.028759 L593.15273,113.369729 L593.15273,106.769439 L587.91132,102.498659 L580.72865,102.013349 L573.35185,100.072079 L557.4335,95.218929 L554.32748,93.471789 L554.03629,93.762979 L549.08607,93.083539 L547.436,94.054169 L548.11544,86.968559 L540.15627,91.045209 L530.44996,92.598219 L530.35286,92.404099 L530.35289,92.404139 Z M549.37726,87.259789 L549.18314,86.580349 L548.5037,86.871539 L549.37726,87.259789 Z M545.88299,86.580349 L546.17418,85.997969 L545.98005,85.803839 L545.88295,86.580349 L545.88299,86.580349 Z M552.9686,84.930279 L552.67741,83.571389 L552.38622,85.221469 L552.9686,84.930279 L552.9686,84.930279 Z" id="WI" stroke="#F8F8F8" stroke-width="1.970631" fill="#F5831F"></path>
                    <polygon id="WV" stroke="#F8F8F8" stroke-width="1.970631" fill="#0076BD" points="735.93258 201.891339 722.14962 205.288549 717.87884 186.846549 717.87884 186.846549 717.68471 186.943649 717.1994 208.200469 714.09338 212.859499 710.50204 215.577269 709.8226 214.800759 705.84301 220.236299 706.1342 224.507069 703.70762 224.895329 700.40748 229.942609 701.57224 233.242749 700.11629 236.445839 695.94258 238.484159 695.94258 238.484159 695.94258 238.678289 697.88384 245.472709 703.41644 252.170059 706.52246 253.917199 708.94903 253.917199 709.24022 254.014299 709.43435 254.111399 710.50204 257.120359 716.61702 259.352809 719.0436 257.217419 721.56724 256.829169 726.90571 252.655459 733.40894 250.714199 735.15608 247.899369 735.54433 242.075579 737.87384 237.610669 740.78574 224.410089 746.70659 226.448419 748.64785 220.721689 751.65681 217.421549 756.60703 208.006419 756.4129 202.376759 765.43977 206.259289 766.02215 202.182639 766.02215 202.085539 766.02215 202.085539 763.20732 197.232389 757.38353 196.552939 753.98632 199.173649 753.98632 201.114909 751.07443 201.794349 746.80365 204.803309 744.5712 205.288629 740.10629 211.597729 737.87384 201.406099 735.93258 201.891419"></polygon>
                    <polygon id="DE" stroke="#F8F8F8" stroke-width="1.970631" fill="#0076BD" points="793.0057 185.875919 793.39395 187.331869 801.45019 210.335829 810.67118 207.618059 810.57408 207.423929 810.76821 207.423929 811.0594 207.521029 811.0594 207.521029 811.25352 207.423929 811.0594 207.035679 808.72988 200.823639 797.3735 190.049639 797.85881 182.575779 797.85881 182.575779 795.5293 182.575779 793.78216 183.934659 793.00566 185.875919 793.00566 185.875919"></polygon>
                    <polygon id="DC" stroke="#000000" stroke-width="0.97063118" fill="#F9F9F9" points="777.37853 207.326869 777.86385 207.715119 778.05797 207.812219 778.2521 207.715119 778.44623 207.812219 779.12567 208.200469 779.3198 208.491659 779.3198 209.171099 779.51392 209.559349 780.77574 207.229839 779.41686 206.453329 777.76679 206.550429 777.37853 207.326929"></polygon>
                    <path d="M810.76825,216.450799 L811.44769,211.209399 L810.86531,215.091919 L810.47706,216.741989 L810.37996,216.936119 L810.67115,216.839019 L810.76825,216.450759 L810.76825,216.450799 Z M811.25356,207.423929 L811.05944,207.521029 L811.25356,208.103409 L811.25356,209.268159 L811.25356,207.423959 L811.25356,207.423959 L811.25356,207.423929 Z M737.87383,201.406019 L740.10629,211.597649 L744.5712,205.288549 L746.80365,204.803229 L751.07443,201.794269 L753.98632,201.114829 L753.98632,199.173569 L757.38353,196.552859 L763.20732,197.232309 L766.02215,202.085459 L766.02215,202.085459 L766.31334,202.182559 L770.77824,203.347309 L773.98132,205.676829 L777.08734,207.035709 L777.37853,207.326899 L777.76679,206.550399 L779.41686,206.453299 L780.77574,207.229809 L779.51392,209.559319 L779.51392,209.656419 L777.66972,215.286079 L783.68764,219.168599 L789.70555,219.459789 L793.68514,221.303989 L792.03506,216.644959 L786.89072,214.897819 L785.6289,210.918239 L788.83198,215.189009 L791.45269,215.577269 L789.12317,213.247749 L787.27897,206.356269 L787.76429,202.376679 L785.72596,198.008839 L787.86135,196.261709 L789.41436,190.632039 L788.83198,198.979469 L790.48205,201.794299 L792.03506,198.494159 L792.90863,203.929689 L791.25856,207.909279 L796.01465,209.656419 L791.938,211.015299 L794.07339,214.994889 L797.56766,216.159639 L799.50892,212.762439 L799.3148,217.518529 L802.61494,217.421429 L804.75033,219.847999 L804.84743,219.847999 L805.52687,218.974439 L807.46813,218.100869 L808.72995,217.615549 L808.63285,217.421429 L811.15649,209.947569 L811.15649,209.656379 L810.67117,207.715109 L810.67117,207.618009 L801.45018,210.335779 L793.39394,187.331819 L793.00569,185.875869 L791.35561,186.361189 L784.46413,188.496579 L746.51245,199.076459 L739.62097,200.920659 L737.87383,201.405969 L737.87383,201.406019 Z" id="MD" stroke="#F8F8F8" stroke-width="1.970631" fill="#F5831F"></path>
                    <path d="M816.00965,185.487669 L815.52434,184.322909 L815.52434,185.487669 L816.00965,185.487669 Z M816.98029,181.896329 L817.27148,178.984439 L816.6891,181.508079 L816.98029,181.896329 L816.98029,181.896329 Z M813.0007,152.097959 L802.80907,149.574309 L801.06193,149.088999 L799.41186,148.700749 L799.41186,148.700749 L795.33521,157.727619 L797.08235,159.863009 L796.98525,166.366229 L798.82945,166.657419 L802.61491,176.557859 L802.42079,176.849049 L797.6647,183.837599 L798.15001,189.176069 L809.60346,193.058589 L809.70056,197.523499 L812.32127,193.835099 L812.70952,188.496629 L815.42729,186.652429 L814.35959,182.672839 L816.39792,177.916749 L816.39792,167.530989 L815.71848,164.133779 L811.15651,164.230879 L812.32127,159.571849 L813.00071,152.097989 L813.00071,152.097989 L813.0007,152.097959 Z" id="NJ" stroke="#F8F8F8" stroke-width="1.970631" fill="#F5831F"></path>
                    <path d="M812.70951,159.960069 L811.25356,161.998389 L810.86531,162.580769 L812.70951,159.960069 Z M826.10422,155.203979 L830.95738,150.933199 L830.95738,150.739069 L826.10422,155.203979 Z M813.38895,158.212929 L813.38895,154.912789 L813.09776,156.659919 L813.38895,158.212929 Z M835.90759,142.682829 L834.74284,142.391639 L834.54871,143.265209 L835.90759,142.682829 Z M838.5283,140.935699 L838.4312,141.906329 L838.62532,141.323949 L838.52822,140.935699 L838.5283,140.935699 Z M835.81053,141.032799 L829.3073,147.050709 L819.3098,151.321489 L816.6891,153.553939 L816.49497,155.689329 L813.7772,157.921779 L814.16546,160.833679 L818.33917,159.183599 L824.45415,154.233379 L831.24856,150.642049 L841.53726,140.935739 L834.25752,146.468329 L831.92801,147.438969 L835.81053,141.032799 L835.81053,141.032799 Z M838.81949,136.956149 L839.20774,136.373769 L838.04298,137.732649 L838.81949,136.956149 Z M729.72054,133.364809 L728.16753,133.170689 L729.33229,134.723699 L729.72054,133.364809 Z M761.9455,103.663499 L762.13962,102.595799 L761.36312,103.566439 L761.9455,103.663539 L761.9455,103.663499 Z M762.43081,96.674949 L762.04256,96.869079 L761.55724,97.936769 L762.43081,96.674949 Z M721.37308,151.806809 L722.05255,154.718699 L727.1969,155.980519 L756.70409,147.924279 L786.4054,138.994469 L791.84094,143.168189 L792.90863,145.594769 L799.21773,148.312529 L799.41186,148.700789 L801.06193,149.089039 L802.80907,149.574349 L813.0007,152.097999 L812.80657,151.612679 L813.68014,155.592269 L815.6214,155.106949 L816.6891,150.739109 L816.6891,150.642009 L814.94196,148.991939 L817.4656,145.885919 L816.30084,144.429969 L812.61245,130.161689 L812.41832,129.191059 L811.933,128.899869 L811.64181,124.629089 L811.35062,119.970059 L811.05944,114.922779 L811.05944,114.631589 L810.86531,114.728689 L806.01215,98.810339 L800.86781,90.754099 L799.41186,81.144859 L795.04402,70.953226 L794.46164,71.244416 L774.17545,78.038834 L770.0988,82.406679 L765.53683,91.142359 L765.73096,93.083619 L759.71305,102.207549 L763.40144,103.469369 L764.46914,110.360849 L760.19836,115.990519 L747.38603,123.755559 L744.95945,122.784929 L735.44727,124.143819 L726.61452,129.482289 L727.09984,132.297119 L730.20586,135.014889 L728.45872,143.556439 L721.47018,151.709739 L721.37308,151.806839 L721.37308,151.806809 Z" id="NY" stroke="#F8F8F8" stroke-width="1.970631" fill="#F5831F"></path>
                    <polygon id="PA" stroke="#F8F8F8" stroke-width="1.970631" fill="#0076BD" points="799.21773 148.312489 792.90863 145.594729 791.84094 143.168149 786.4054 138.994429 756.70409 147.924239 727.1969 155.980479 722.05255 154.718659 721.37311 151.806769 719.72304 153.068589 717.10234 154.912789 712.34624 159.765939 711.76386 160.251259 714.48163 172.190019 714.96695 174.325409 717.39352 184.808229 717.87884 186.846549 717.87884 186.846549 722.14962 205.288549 735.93258 201.891339 737.87384 201.406019 739.62098 200.920709 746.51246 199.076509 784.46414 188.496629 791.35562 186.361239 793.0057 185.875919 793.0057 185.875919 793.7822 183.934659 795.52934 182.575779 797.85885 182.575779 798.15004 181.702209 801.9355 177.431429 802.32375 176.751989 802.61494 176.557859 798.82948 166.657419 796.98528 166.366229 797.08238 159.863009 795.33524 157.727619 799.41189 148.700749 799.41189 148.700749 799.21776 148.312489"></polygon>
                    <path d="M846.00216,96.577849 L845.90506,96.577849 L846.09918,96.674949 L846.00208,96.577849 L846.00216,96.577849 Z M853.18483,75.903406 L852.40832,74.738648 L852.40832,75.321027 L853.18483,75.903406 Z M851.82595,74.835711 L851.82595,73.86508 L851.72885,73.282701 L851.82595,74.835711 Z M855.32022,70.75906 L855.12609,70.662 L855.22319,70.953189 L855.32029,70.759063 L855.32022,70.75906 Z M865.02653,65.905904 L864.8324,64.449957 L864.44415,65.129399 L865.02653,65.905904 Z M862.59995,66.488283 L862.69705,65.420589 L861.53229,65.614715 L862.59998,66.488283 L862.59995,66.488283 Z M866.19129,63.2852 L865.80304,63.2852 L865.80304,63.479326 L866.19129,63.2852 Z M861.33813,64.741147 L860.46456,64.547021 L860.36746,65.420589 L861.33809,64.741147 L861.33813,64.741147 Z M866.28835,61.73219 L867.16192,62.411632 L866.87073,61.635127 L866.28835,61.732187 L866.28835,61.73219 Z M863.66765,61.82925 L862.79408,63.479323 L863.95884,62.896944 L863.66765,61.82925 Z M859.49393,61.92631 L859.10568,62.508689 L859.39687,63.382257 L859.49397,61.92631 L859.49393,61.92631 Z M865.22066,58.723227 L865.12356,57.946722 L864.83237,58.432038 L865.22063,58.723227 L865.22066,58.723227 Z M864.73534,59.11148 L863.86177,58.334975 L863.86177,59.014417 L864.73534,59.111477 L864.73534,59.11148 Z M859.29981,61.343932 L859.10568,60.276237 L858.71743,61.149805 L859.29981,61.343932 Z M868.5208,57.946722 L867.06486,60.082111 L866.96776,58.529101 L868.52077,57.946722 L868.5208,57.946722 Z M875.60641,51.443493 L874.92697,50.472862 L874.53872,50.666988 L875.60641,51.443493 Z M878.22711,47.075653 L877.64474,46.784464 L877.54764,47.075653 L878.22708,47.075653 L878.22711,47.075653 Z M879.48894,39.50473 L878.61537,39.50473 L879.586,39.795919 L879.4889,39.50473 L879.48894,39.50473 Z M880.94488,40.475365 L880.65369,38.728225 L879.87719,38.631165 L880.94488,40.475365 L880.94488,40.475365 Z M879.39187,38.922351 L879.19775,37.078152 L878.5183,38.339972 L879.39187,38.922351 Z M823.09526,54.161261 L837.16941,87.162719 L837.36354,87.842159 L843.47852,95.316019 L843.47852,95.218919 L844.44915,94.927729 L844.64328,89.395129 L846.19629,87.453869 L847.16692,82.309519 L846.29335,81.435949 L847.94342,76.388675 L853.57308,73.767971 L857.26148,69.303067 L858.62036,61.538018 L864.54121,61.149765 L863.76471,57.170177 L871.14151,54.355347 L871.62682,49.987507 L873.37396,50.375759 L878.22711,46.396171 L880.3625,41.251826 L875.41228,36.301607 L870.17088,35.233912 L868.22961,31.254324 L868.22961,28.924809 L865.02653,29.895441 L861.43519,28.63362 L861.43519,24.654032 L851.72888,3.688398 L844.64328,7.10542736e-14 L836.78116,6.600292 L834.64577,6.212039 L832.80157,2.81483 L830.27793,3.785461 L826.6866,21.645075 L827.94842,27.468863 L829.01611,39.310563 L826.20128,48.434497 L828.14254,49.890443 L825.81303,54.355347 L823.28939,53.967094 L823.09526,54.161221 L823.09526,54.161261 Z" id="ME" stroke="#F8F8F8" stroke-width="1.970631" fill="#0076BD"></path>
                    <path d="M619.16565,116.378729 L618.68033,115.602219 L618.58323,116.572849 L619.16561,116.378729 L619.16565,116.378729 Z M620.71866,114.631589 L619.5539,113.078579 L619.35977,113.758019 L620.71866,114.631589 Z M621.68929,107.643049 L620.71866,106.769479 L620.71866,106.963599 L621.68929,107.643049 Z M619.26271,183.643469 L631.29854,181.702209 L634.69575,181.022769 L649.5464,178.402059 L649.83759,179.663879 L650.80822,179.372689 L657.21439,178.013809 L663.32937,176.557859 L669.54141,175.004849 L669.44431,174.713659 L672.6474,168.404559 L672.35621,163.163149 L675.94754,154.136279 L678.76237,155.786349 L679.83007,153.748029 L679.53888,145.982979 L676.91817,141.129819 L673.03565,130.841129 L669.63844,127.055669 L667.8913,126.570359 L661.5822,130.938199 L662.26164,131.811759 L658.9615,138.023799 L655.75841,137.441419 L654.78778,130.938199 L656.14667,130.452879 L658.9615,123.949649 L659.25269,112.496199 L654.88485,102.789889 L645.17853,101.139819 L644.2079,99.683869 L635.18103,97.063169 L631.10438,102.110449 L631.49263,106.478289 L628.38661,110.360809 L629.06606,116.378729 L626.0571,118.514119 L626.0571,110.943189 L623.33933,116.669919 L620.13625,121.717199 L618.00086,123.367269 L619.06855,128.705739 L617.70967,134.238339 L618.48618,141.129819 L617.51554,144.527029 L624.50409,157.921739 L625.37766,163.066089 L624.50409,172.578269 L619.84506,183.255219 L619.26268,183.643469 L619.26271,183.643469 Z M640.03422,96.189599 L637.51058,96.383719 L639.06359,97.548479 L640.03422,96.189599 Z M625.28062,98.713239 L624.50412,98.713239 L625.37769,99.101489 L625.28059,98.713239 L625.28062,98.713239 Z M642.26667,86.386219 L641.29604,84.833209 L640.90779,84.930309 L642.26667,86.386249 L642.26667,86.386219 Z M554.32748,93.471829 L557.4335,95.218969 L573.35185,100.072119 L580.72865,102.013389 L587.91132,102.498699 L593.15273,106.769479 L593.15273,113.369769 L597.81176,118.028799 L597.81176,117.931699 L601.59722,106.963559 L606.15919,103.760479 L609.65346,99.877959 L610.23584,103.372229 L613.82718,97.839629 L622.46579,94.539489 L623.14524,93.180599 L631.88092,94.248299 L635.27813,95.995429 L636.9282,91.724659 L638.48121,92.695289 L645.27563,91.627589 L643.62555,88.909819 L640.6166,87.162689 L641.19898,80.853589 L635.27813,84.153729 L629.84259,83.474289 L628.09545,79.300579 L628.67783,77.941691 L621.30104,81.435959 L616.54494,81.727149 L608.00339,86.968559 L607.03276,88.909819 L601.79135,87.647999 L598.4912,89.103949 L591.89091,83.377229 L577.23438,78.912319 L576.94319,77.165186 L567.52807,86.192059 L562.1896,87.550939 L554.61867,93.277669 L554.32748,93.471789 L554.32748,93.471829 Z M588.68783,71.438502 L577.33144,77.068163 L581.1169,80.756559 L582.57285,77.068163 L586.45538,72.31207 L588.68783,71.438502 L588.68783,71.438502 Z M575.97256,58.140855 L568.20751,63.479326 L567.81926,66.10003 L573.93423,61.635127 L575.97256,58.140855 L575.97256,58.140855 Z" id="MI" stroke="#F8F8F8" stroke-width="1.970631" fill="#0076BD"></path>
                    <path d="M0.48532,521.131939 L9.95314942e-14,521.326059 L0.38826,521.423159 L0.48536,521.131969 L0.48532,521.131939 Z M2.32952,520.064239 L2.32952,520.355429 L2.52365,520.258329 L2.32952,520.064199 L2.32952,520.064239 Z M3.30015,520.549559 L3.30015,520.355429 L3.20305,520.452529 L3.30015,520.549629 L3.30015,520.549559 Z M3.10602,519.190679 L3.20312,518.608299 L2.81487,518.802419 L3.10605,519.190679 L3.10602,519.190679 Z M14.17122,523.946769 L14.07412,523.849669 L14.26824,524.237919 L14.17114,523.946729 L14.17122,523.946769 Z M6.98855,520.549559 L5.92086,519.578929 L5.92086,521.908439 L6.98855,520.549559 Z M9.41513,522.684949 L9.31803,522.005509 L7.66796,521.908409 L9.4151,522.684919 L9.41513,522.684949 Z M15.23891,524.043829 L15.14181,524.237959 L15.33594,524.237959 L15.23884,524.043829 L15.23891,524.043829 Z M15.627165,524.140929 L15.43304,524.140929 L15.82129,524.238029 L15.627165,524.140929 Z M16.79192,524.529189 L16.69482,524.529189 L16.59772,524.529189 L16.79184,524.529189 L16.79192,524.529189 Z M14.65654,523.170299 L13.88003,523.073199 L14.17122,523.364389 L14.65654,523.170259 L14.65654,523.170299 Z M17.08311,523.364429 L16.88899,523.267329 L16.88899,523.364429 L17.08311,523.364429 Z M23.00396,524.529189 L19.2185,524.820379 L18.34493,525.208629 L23.00396,524.529189 Z M34.7486,528.994089 L34.7486,528.605839 L34.55448,528.605839 L34.7486,528.994089 Z M39.79588,529.091189 L39.99001,528.897064 L39.79588,528.702939 L39.79588,529.091189 Z M43.58135,530.158889 L43.77547,530.061789 L43.67837,530.061789 L43.58127,530.158889 L43.58135,530.158889 Z M40.47533,528.411749 L40.37823,528.023499 L40.18411,528.023499 L40.4753,528.411749 L40.47533,528.411749 Z M41.83421,528.411749 L42.02834,527.829369 L41.93124,527.829369 L41.83414,528.411749 L41.83421,528.411749 Z M58.23788,526.955809 L58.33498,526.761679 L58.14085,526.664579 L58.23795,526.955769 L58.23788,526.955809 Z M55.8113,526.082239 L52.41409,529.091189 L54.84067,528.897069 L57.6555,526.664619 L55.8113,526.082239 L55.8113,526.082239 Z M61.92628,527.149934 L61.24683,526.955809 L61.73215,527.344059 L61.92628,527.149934 Z M63.28516,527.247029 L62.21746,526.955849 L62.02334,527.052949 L63.28516,527.247069 L63.28516,527.247029 Z M59.59676,525.888149 L58.52907,525.888149 L60.37327,526.373469 L59.59676,525.888149 Z M64.06166,526.858779 L63.96456,526.664659 L63.57631,526.761759 L64.06162,526.858859 L64.06166,526.858779 Z M61.14977,525.694019 L60.76152,525.499899 L60.76152,526.567589 L61.14977,525.694019 Z M73.57385,528.120599 L73.47675,528.023499 L73.28262,528.023499 L73.57381,528.120599 L73.57385,528.120599 Z M73.76798,528.023499 L73.76798,527.926399 L73.57385,527.829299 L73.76798,528.023429 L73.76798,528.023499 Z M72.1179,527.441119 L72.31203,527.829369 L72.31203,527.732269 L72.1179,527.441079 L72.1179,527.441119 Z M72.99147,527.441119 L72.1179,527.149929 L73.1856,527.926439 L72.99147,527.441119 Z M85.8038,527.926439 L85.60968,527.538179 L85.51258,527.538179 L85.80377,527.926439 L85.8038,527.926439 Z M190.24372,521.423209 L190.04959,521.229079 L190.14669,521.423209 L190.24379,521.423209 L190.24372,521.423209 Z M193.05855,519.676069 L193.34974,520.064319 L193.54387,520.064319 L193.05855,519.676069 L193.05855,519.676069 Z M86.96856,526.955809 L86.87146,527.052909 L86.87146,527.344099 L86.96856,526.955849 L86.96856,526.955809 Z M74.93273,525.208669 L75.12686,524.432159 L75.02976,524.432159 L74.93266,525.208669 L74.93273,525.208669 Z M198.68821,517.443619 L197.81464,517.928939 L198.59115,518.317189 L198.68825,517.443619 L198.68821,517.443619 Z M76.67987,524.723349 L76.58277,524.529229 L76.67987,524.723349 L76.67987,524.723349 Z M69.40014,522.587959 L66.97356,523.073279 L64.83817,525.888109 L69.40014,522.587959 Z M86.77443,526.276359 L86.19206,526.761679 L86.77443,526.664579 L86.77443,526.276319 L86.77443,526.276359 Z M198.68821,516.958299 L198.49409,516.570049 L198.39699,516.764174 L198.68818,516.958299 L198.68821,516.958299 Z M77.45637,523.752719 L76.77693,523.655619 L77.45637,524.335059 L77.45637,523.752679 L77.45637,523.752719 Z M192.28205,518.220119 L192.08792,518.414249 L192.28205,519.093689 L192.28205,518.220119 Z M79.00938,523.655659 L78.7182,523.752759 L79.10645,524.043949 L79.00935,523.655699 L79.00938,523.655659 Z M86.19206,525.693979 L85.90087,525.693979 L85.70674,525.499859 L86.19206,525.693979 Z M78.23288,523.655659 L77.74756,523.364469 L77.94169,523.655659 L78.23288,523.655659 Z M84.73611,524.723349 L83.86254,525.014539 L83.28016,526.567549 L84.73611,524.723349 Z M190.14666,517.928939 L190.14666,518.608379 L190.53491,518.123059 L190.14666,517.928939 Z M73.28266,521.617329 L74.05917,521.423209 L73.96207,521.423209 L73.28263,521.617329 L73.28266,521.617329 Z M72.31203,521.034949 L72.1179,520.840829 L72.1179,520.937929 L72.31203,521.035029 L72.31203,521.034949 Z M190.14666,517.249489 L189.95253,517.152389 L189.85543,517.443579 L190.14662,517.249449 L190.14666,517.249489 Z M83.66841,523.073279 L83.474285,522.976179 L83.28016,523.267369 L83.66841,523.073239 L83.66841,523.073279 Z M189.17603,517.443619 L189.27313,516.958299 L189.079,516.861199 L189.1761,517.443579 L189.17603,517.443619 Z M188.39952,516.958299 L188.10833,517.346559 L188.59365,517.443659 L188.39952,516.958339 L188.39952,516.958299 Z M87.74507,521.714399 L87.55094,521.520269 L87.45384,521.520269 L87.74503,521.714399 L87.74507,521.714399 Z M188.10833,515.211169 L188.88484,515.502359 L189.17603,515.114099 L188.10833,515.211199 L188.10833,515.211169 Z M189.27309,514.531729 L188.9819,514.725849 L189.46722,515.017039 L189.27309,514.531729 L189.27309,514.531729 Z M187.04064,515.114099 L186.84651,514.725849 L186.65238,514.919974 L187.04064,515.114099 L187.04064,515.114099 Z M196.74695,511.522769 L195.48513,515.114099 L196.74695,514.337599 L196.74695,511.522769 L196.74695,511.522769 Z M188.20539,512.881649 L187.33183,513.755219 L187.52595,514.725849 L188.20539,512.881649 Z M97.83963,520.646699 L97.83963,520.258449 L97.74253,520.452574 L97.83963,520.646699 Z M187.1377,511.911019 L189.95253,516.181799 L196.26163,520.161389 L194.80569,516.764179 L188.78777,511.619829 L187.1377,511.911019 L187.1377,511.911019 Z M93.95711,519.093689 L93.86001,518.802499 L93.66589,518.899599 L93.95708,519.093719 L93.95711,519.093689 Z M190.43785,510.260949 L190.04959,511.716899 L190.72904,511.231579 L190.43785,510.260949 Z M192.47617,510.260949 L192.37907,511.231579 L193.25264,511.522769 L192.47613,510.260949 L192.47617,510.260949 Z M97.06312,517.831869 L96.577805,517.734769 L96.09249,517.928899 L97.06312,517.831799 L97.06312,517.831869 Z M107.06063,518.608379 L106.67237,519.287819 L106.8665,518.705439 L107.06063,518.608339 L107.06063,518.608379 Z M108.51657,518.705479 L107.643,518.802579 L108.12832,519.384959 L108.51657,518.705519 L108.51657,518.705479 Z M49.69632,506.281399 L50.66695,506.766719 L50.47283,506.572589 L49.69632,506.281399 Z M188.88484,508.319689 L189.37015,510.163889 L190.34078,509.581509 L188.88484,508.319689 L188.88484,508.319689 Z M184.71112,509.096189 L185.19644,513.561089 L186.16707,512.590459 L184.71112,509.096189 L184.71112,509.096189 Z M185.19644,507.640239 L187.42889,510.746259 L187.1377,508.707939 L185.19644,507.640239 Z M178.30496,508.416749 L177.72258,510.260949 L178.49908,508.999129 L178.30496,508.416749 L178.30496,508.416749 Z M109.87546,513.366969 L109.68133,513.075779 L109.87546,513.464029 L109.87546,513.366929 L109.87546,513.366969 Z M178.49908,506.960799 L182.38161,513.366969 L181.79923,508.999129 L178.49908,506.960799 Z M115.31099,510.358009 L115.0198,510.649199 L115.50512,510.843329 L115.31099,510.358009 Z M114.04917,510.552139 L114.14627,510.260949 L113.75802,510.260949 L114.04921,510.552139 L114.04917,510.552139 Z M113.07854,510.552139 L110.5549,512.202209 L107.44888,516.278859 L109.00189,517.928939 L116.18456,512.590459 L113.07854,510.552139 Z M174.32537,504.243039 L173.64593,503.854779 L173.64593,504.437159 L174.32537,504.243039 Z M112.49616,509.387379 L112.59326,509.775634 L113.27271,510.163889 L112.4962,509.387379 L112.49616,509.387379 Z M176.16957,502.398839 L174.22831,503.369469 L176.0725,503.951849 L176.1696,502.398839 L176.16957,502.398839 Z M174.90775,502.398839 L174.71362,502.204709 L174.61652,502.398839 L174.90771,502.398839 L174.90775,502.398839 Z M180.8286,500.845829 L180.05209,500.554639 L179.85797,501.137019 L180.8286,500.845829 L180.8286,500.845829 Z M176.65488,501.525269 L175.97544,501.428169 L175.97544,501.622299 L176.65488,501.525199 L176.65488,501.525269 Z M178.79027,500.748759 L182.76986,506.572549 L181.70217,501.234079 L178.79027,500.748759 L178.79027,500.748759 Z M114.72861,507.057869 L112.3991,508.804999 L113.46679,509.969759 L116.57281,507.640239 L114.72861,507.057869 Z M87.25975,502.884149 L87.16265,502.398839 L87.16265,502.592959 L87.25975,502.884149 Z M117.05813,504.145969 L116.864,504.243069 L116.864,504.340169 L117.05813,504.146039 L117.05813,504.145969 Z M116.0875,503.951849 L115.9904,503.951849 L115.79628,504.243039 L116.08747,503.951849 L116.0875,503.951849 Z M118.41701,503.175339 L118.12582,502.981209 L118.12582,503.078309 L118.41701,503.175409 L118.41701,503.175339 Z M119.19352,503.078239 L118.90233,502.884109 L118.90233,502.981209 L119.19352,503.078309 L119.19352,503.078239 Z M117.9317,502.787049 L117.54344,502.787049 L117.54344,502.884149 L117.9317,502.787049 Z M137.24726,500.845789 L137.34436,500.554599 L137.15023,500.748719 L137.24733,500.845819 L137.24726,500.845789 Z M143.16811,497.739769 L144.33286,496.283819 L143.94461,496.575009 L143.16811,497.739769 Z M131.32641,497.545639 L131.71466,497.254449 L131.81176,496.866199 L131.32645,497.545639 L131.32641,497.545639 Z M131.32641,496.477949 L130.93815,496.769129 L131.6176,496.575009 L131.32641,496.477909 L131.32641,496.477949 Z M115.40805,496.477949 L115.31095,496.089689 L115.21385,496.089689 L115.40797,496.477949 L115.40805,496.477949 Z M130.93815,496.380849 L130.5499,496.769104 L130.35578,497.157359 L130.93815,496.380849 L130.93815,496.380849 Z M141.6151,495.216089 L141.7122,495.216089 L141.8093,495.216089 L141.61518,495.216089 L141.6151,495.216089 Z M142.10041,495.216089 L141.90629,495.118989 L141.90629,495.216089 L142.10041,495.216089 Z M132.97648,495.701369 L133.36473,495.313119 L132.87942,495.701369 L132.97652,495.701369 L132.97648,495.701369 Z M134.14124,494.827799 L131.81172,498.613259 L134.82068,495.118989 L134.14124,494.827799 L134.14124,494.827799 Z M131.13228,495.313119 L130.84109,494.924869 L130.74399,495.118994 L131.13224,495.313119 L131.13228,495.313119 Z M138.50908,494.439549 L138.31495,494.342449 L138.41205,494.439549 L138.50915,494.439549 L138.50908,494.439549 Z M141.03272,494.633679 L141.03272,493.954229 L140.83859,494.245419 L141.03272,494.633679 Z M69.78839,487.159819 L65.12936,486.965689 L68.33244,490.362899 L69.78839,487.159819 L69.78839,487.159819 Z M136.0825,494.051299 L136.27663,494.730739 L136.76194,493.954229 L136.0825,494.051329 L136.0825,494.051299 Z M132.19997,493.954199 L131.90878,496.089589 L132.3941,494.730709 L132.19997,493.954199 Z M47.94919,477.841729 L48.04629,477.453469 L48.04629,477.453469 L47.94919,477.841729 Z M131.22934,492.595319 L131.32644,492.886509 L131.52056,492.789409 L131.22937,492.595279 L131.22934,492.595319 Z M130.74403,492.983569 L130.5499,492.401189 L130.25871,492.595319 L130.74403,492.983569 Z M135.30599,491.818819 L135.30599,491.430559 L135.0148,491.624689 L135.30599,491.818819 Z M130.93815,491.236439 L130.93815,492.207069 L131.22934,491.527629 L130.93815,491.236439 Z M123.56136,490.071679 L123.56136,489.780489 L123.56136,489.780489 L123.56136,490.071679 Z M72.89441,478.035849 L73.08853,477.453469 L72.99143,477.550569 L72.89433,478.035879 L72.89441,478.035849 Z M73.1856,477.065219 L73.0885,476.968119 L72.9914,477.065219 L73.18553,477.065219 L73.1856,477.065219 Z M77.45637,474.347449 L77.35927,474.153329 L77.35927,474.153329 L77.45637,474.347449 Z M79.78589,472.017939 L79.39764,471.823809 L79.39764,471.920909 L79.78589,472.018009 L79.78589,472.017939 Z M79.20351,471.629689 L79.20351,471.435559 L79.00938,471.629689 L79.20351,471.629689 Z M63.67341,467.067719 L63.47929,466.582399 L63.38219,466.291219 L63.67338,467.067719 L63.67341,467.067719 Z M65.12936,465.320579 L65.22646,465.320579 L65.32356,465.417679 L65.12944,465.320579 L65.12936,465.320579 Z M62.50865,464.835269 L61.73215,463.864639 L62.31453,464.641139 L62.50865,464.835269 L62.50865,464.835269 Z M60.95564,463.282259 L60.76152,463.282259 L61.05271,463.379359 L60.95561,463.282259 L60.95564,463.282259 Z M60.95564,462.117459 L60.95564,462.117459 L61.14977,462.214559 L60.95564,462.117459 Z M86.67737,469.785449 L85.60968,469.882549 L86.19206,470.173739 L86.67737,469.785489 L86.67737,469.785449 Z M59.88795,460.370319 L59.11144,463.282219 L61.53802,463.670469 L64.74111,466.970619 L66.68237,466.097049 L59.88795,460.370319 L59.88795,460.370319 Z M76.874,461.535079 L76.874,461.340959 L76.874,461.438059 L76.874,461.535159 L76.874,461.535079 Z M72.02084,451.246389 L71.82671,451.149289 L71.92381,451.246389 L72.02091,451.246389 L72.02084,451.246389 Z M74.83567,452.217019 L75.12686,452.119919 L75.02976,452.119919 L74.83563,452.217019 L74.83567,452.217019 Z M76.77693,451.634639 L77.06812,451.634639 L77.94169,451.246389 L76.77693,451.634639 Z M80.27121,450.566949 L80.46533,450.372819 L80.17414,450.566949 L80.27124,450.566949 L80.27121,450.566949 Z M80.75652,450.469849 L81.3389,450.178659 L80.85358,450.275759 L80.75648,450.469889 L80.75652,450.469849 Z M82.21247,449.887469 L81.72715,449.984569 L81.72715,450.081669 L82.21247,449.887549 L82.21247,449.887469 Z M144.52699,432.319009 L144.13874,432.027819 L143.4593,431.736629 L144.52699,432.319009 L144.52699,432.319009 Z M93.66592,430.183619 L94.53948,429.018869 L94.05417,429.407119 L93.66592,430.183619 Z M94.83067,428.824739 L95.21893,428.242359 L95.0248,428.436489 L94.83067,428.824739 Z M95.41305,428.048239 L96.09249,427.465859 L95.70424,427.659979 L95.41305,428.048239 Z M125.98793,428.242359 L126.47325,428.727679 L126.76444,428.727679 L125.98793,428.242359 Z M110.36077,421.836199 L106.38118,425.136339 L103.95461,424.456899 L98.32495,427.659979 L97.25725,426.980539 L90.85109,434.163209 L84.34786,435.619159 L84.93023,439.113429 L87.84213,443.093019 L93.27766,448.334429 L92.4041,450.372749 L96.48075,452.119889 L94.34536,452.508139 L91.72465,450.469819 L93.08354,453.478769 L91.3364,454.546469 L85.8038,449.499189 L81.43596,450.275689 L73.9621,453.090519 L77.35931,456.875979 L76.874,459.205499 L79.10645,461.923259 L86.48324,464.835159 L91.82172,462.117389 L92.69528,464.155719 L91.23934,470.270689 L86.77443,470.270689 L81.53303,472.600209 L81.24184,470.950129 L78.52407,472.017829 L77.26225,474.832659 L72.79734,478.229869 L72.79734,483.180089 L74.54448,483.956589 L73.1856,488.130309 L79.00938,493.177589 L82.69778,491.624579 L81.92128,497.836619 L82.98897,499.195499 L87.45388,500.166129 L89.10395,502.010329 L92.98647,502.301519 L94.83067,504.242789 L98.81026,503.078029 L96.96606,505.601669 L95.51011,510.746009 L83.66841,518.413999 L82.1154,519.967009 L79.88295,519.093439 L76.29162,519.967009 L71.14727,523.364219 L79.20351,521.034699 L80.36827,522.781839 L90.75402,519.384629 L91.04521,520.743519 L95.12186,516.666859 L103.66342,510.746009 L104.34286,511.134269 L111.81672,505.213419 L109.87546,502.883899 L112.3991,498.710189 L118.99939,490.848069 L124.04667,489.877439 L125.59968,490.945139 L119.48471,492.692269 L117.83463,499.195499 L118.02876,502.689779 L120.16415,502.495649 L130.45284,496.283609 L131.22934,493.954089 L130.35578,490.362759 L133.46179,491.139259 L135.69425,489.683319 L142.10041,493.565839 L141.6151,494.633539 L156.17456,496.477739 L159.57177,495.410039 L160.54241,496.865989 L173.16061,502.883899 L175.296,501.622079 L175.49013,494.342349 L177.1402,497.642489 L185.2935,503.563339 L185.97294,505.989919 L193.05855,509.969509 L194.90275,515.113849 L196.64989,511.134269 L200.24122,518.122809 L202.6678,514.143219 L200.72654,509.192999 L193.25268,508.416499 L181.79923,497.448369 L175.58719,492.886399 L170.8311,497.545429 L168.01627,497.545429 L161.51304,493.274649 L155.10687,492.983459 L145.98294,435.425029 L144.42993,432.707269 L140.74153,430.474809 L135.20893,431.542509 L130.93815,430.668939 L125.50262,428.533549 L119.77589,428.921799 L118.31995,426.204039 L113.75798,425.524589 L112.98148,423.874519 L110.94315,426.204039 L110.36077,421.836199 L110.36077,421.836199 Z" id="AK" stroke="#F8F8F8" stroke-width="1.970631" fill="#0076BD"></path>
                </g>
            </g>
        </g>
    </g>
</svg>
